<?xml version="1.0" encoding="UTF-8" standalone="no"?>
<!-- Created with Inkscape (http://www.inkscape.org/) -->
<svg
   xmlns:dc="http://purl.org/dc/elements/1.1/"
   xmlns:cc="http://creativecommons.org/ns#"
   xmlns:rdf="http://www.w3.org/1999/02/22-rdf-syntax-ns#"
   xmlns:svg="http://www.w3.org/2000/svg"
   xmlns="http://www.w3.org/2000/svg"
   xmlns:sodipodi="http://sodipodi.sourceforge.net/DTD/sodipodi-0.dtd"
   xmlns:inkscape="http://www.inkscape.org/namespaces/inkscape"
   version="1.0"
   width="800"
   height="480"
   id="svg2"
   sodipodi:version="0.32"
   inkscape:version="0.46"
   sodipodi:docname="steering.svg"
   inkscape:output_extension="org.inkscape.output.svg.inkscape">
  <metadata
     id="metadata2493">
    <rdf:RDF>
      <cc:Work
         rdf:about="">
        <dc:format>image/svg+xml</dc:format>
        <dc:type
           rdf:resource="http://purl.org/dc/dcmitype/StillImage" />
      </cc:Work>
    </rdf:RDF>
  </metadata>
  <sodipodi:namedview
     inkscape:window-height="778"
     inkscape:window-width="1280"
     inkscape:pageshadow="2"
     inkscape:pageopacity="0.0"
     guidetolerance="10.0"
     gridtolerance="10.0"
     objecttolerance="10.0"
     borderopacity="1.0"
     bordercolor="#666666"
     pagecolor="#ffffff"
     id="base"
     showgrid="false"
     inkscape:zoom="0.94796854"
     inkscape:cx="242.62407"
     inkscape:cy="242.62408"
     inkscape:window-x="-5"
     inkscape:window-y="-3"
     inkscape:current-layer="svg2" />
  <defs
     id="defs4">
    <inkscape:perspective
       sodipodi:type="inkscape:persp3d"
       inkscape:vp_x="0 : 242.62408 : 1"
       inkscape:vp_y="0 : 1000 : 0"
       inkscape:vp_z="485.24814 : 242.62408 : 1"
       inkscape:persp3d-origin="242.62407 : 161.74939 : 1"
       id="perspective2495" />
  </defs>
  <g
     transform="matrix(0.9108696,0,0,0.9108696,-139.58112,45.311744)"
     id="layer1"
     name="steering">
    <path
       d="M 593.52601,161.06603 C 596.98541,155.66028 598.71535,150.03798 598.71583,144.19911 C 598.71535,137.06344 595.9042,131.11678 590.28238,126.35911 C 583.14591,121.60212 573.95561,113.60116 562.71146,102.35619 C 559.89986,96.301775 554.60193,88.192689 546.81764,78.02891 C 517.19201,52.296472 480.43083,39.430056 436.53397,39.429625 C 392.42022,39.430056 355.55091,52.296472 325.92593,78.02891 C 321.38463,81.705421 316.0867,89.814506 310.03211,102.35619 C 306.13955,108.62758 296.94925,116.62855 282.46119,126.35911 C 276.83872,131.11678 274.02757,137.06344 274.02773,144.19911 C 274.02757,150.03798 275.75751,155.66028 279.21755,161.06603 C 283.75848,165.17494 288.62393,167.22924 293.81392,167.22894 C 301.59846,167.22924 309.27506,163.22876 316.84375,155.22748 C 352.956,113.92552 392.74458,92.841898 436.2096,91.976551 C 448.96757,92.193171 461.61775,94.355594 474.16016,98.463825 C 504.43372,108.41134 531.68024,127.33254 555.89982,155.22748 C 563.46786,163.22876 571.14446,167.22924 578.92965,167.22894 C 584.119,167.22924 588.98445,165.17494 593.52601,161.06603 M 553.62927,157.17366 C 518.1651,116.73667 479.02525,96.085532 436.2096,95.220188 C 423.66723,95.436806 411.34142,97.599228 399.23214,101.70746 C 369.60666,111.43873 342.90074,129.92745 319.11429,157.17366 C 310.89688,165.82367 302.46343,170.14851 293.81392,170.14821 C 287.75896,170.14851 282.13666,167.87797 276.94701,163.33657 C 273.27072,156.84961 271.43267,150.36234 271.43282,143.87475 C 271.43267,136.09035 274.56818,129.38684 280.83937,123.7642 C 287.75896,119.22346 296.62489,111.54686 307.4372,100.73437 C 313.27555,88.408932 318.78972,80.083604 323.97975,75.758364 C 333.71044,67.541552 344.09007,60.621799 355.11867,54.999084 C 379.98629,42.457448 407.12469,36.186422 436.53397,36.185988 C 476.32222,36.186422 510.92099,46.998536 540.33036,68.622361 C 542.27612,70.136459 545.08727,72.515124 548.76382,75.758364 C 553.9532,80.083604 559.5755,88.408932 565.63073,100.73437 C 569.09016,106.57328 577.84797,114.24988 591.9042,123.7642 C 598.39099,129.38684 601.63462,136.09035 601.63511,143.87475 C 601.63462,150.36234 599.68844,156.84961 595.79656,163.33657 C 590.60626,167.87797 584.98397,170.14851 578.92965,170.14821 C 570.27949,170.14851 561.84604,165.82367 553.62927,157.17366 M 197.15353,212.63986 C 197.15344,145.60501 220.83197,88.408932 268.18918,41.051444 C 315.54609,-6.3051853 372.74217,-29.983714 439.7776,-29.984215 C 506.81238,-29.983714 564.00847,-6.3051853 611.36602,41.051444 C 658.72258,88.408932 682.40111,145.60501 682.40168,212.63986 C 682.40111,279.67522 658.72258,336.87131 611.36602,384.22828 C 564.00847,431.58542 506.81238,455.26395 439.7776,455.26394 C 372.74217,455.26395 315.54609,431.58542 268.18918,384.22828 C 220.83197,336.87131 197.15344,279.67522 197.15353,212.63986 M 209.47935,212.63986 C 209.47925,276.21535 231.96845,330.49216 276.94701,375.47046 C 321.92524,420.44895 376.20205,442.93814 439.7776,442.93812 C 503.35251,442.93814 557.62932,420.44895 602.6082,375.47046 C 647.5861,330.49216 670.0753,276.21535 670.07586,212.63986 C 670.0753,149.06489 647.5861,94.788079 602.6082,49.809265 C 557.62932,4.8312919 503.35251,-17.657905 439.7776,-17.658393 C 376.20205,-17.657905 321.92524,4.8312919 276.94701,49.809265 C 231.96845,94.788079 209.47925,149.06489 209.47935,212.63986 M 359.01103,212.63986 C 359.01079,190.36716 366.90363,171.33784 382.68958,155.55184 C 398.475,139.76647 417.50432,131.87363 439.7776,131.87329 C 462.05023,131.87363 481.07955,139.76647 496.86562,155.55184 C 512.65092,171.33784 520.54377,190.36716 520.54417,212.63986 C 520.54377,234.91307 512.65092,253.94239 496.86562,269.72788 C 481.07955,285.51377 462.05023,293.40661 439.7776,293.40643 C 417.50432,293.40661 398.475,285.51377 382.68958,269.72788 C 366.90363,253.94239 359.01079,234.91307 359.01103,212.63986 M 362.9034,212.63986 C 362.90315,233.83186 370.36351,251.99621 385.28449,267.13297 C 400.42118,282.05389 418.58553,289.51425 439.7776,289.51407 C 460.96902,289.51425 479.02525,282.05389 493.94635,267.13297 C 509.08293,251.99621 516.65141,233.83186 516.65181,212.63986 C 516.65141,191.44838 509.08293,173.39215 493.94635,158.47112 C 479.02525,143.33447 460.96902,135.76599 439.7776,135.76566 C 418.58553,135.76599 400.42118,143.33447 385.28449,158.47112 C 370.36351,173.39215 362.90315,191.44838 362.9034,212.63986 M 379.12158,212.63986 C 379.12132,195.98946 385.06798,181.71747 396.96159,169.82385 C 408.85463,157.93082 423.12662,151.98416 439.7776,151.98384 C 456.42793,151.98416 470.69992,157.93082 482.59362,169.82385 C 494.48657,181.71747 500.43324,195.98946 500.43362,212.63986 C 500.43324,229.29077 494.48657,243.56276 482.59362,255.45587 C 470.69992,267.34941 456.42793,273.29608 439.7776,273.29588 C 423.12662,273.29608 408.85463,267.34941 396.96159,255.45587 C 385.06798,243.56276 379.12132,229.29077 379.12158,212.63986 M 382.04086,212.63986 C 382.04059,228.64205 387.66289,242.26531 398.90777,253.50969 C 410.15209,264.75451 423.77535,270.37681 439.7776,270.37661 C 455.77921,270.37681 469.40247,264.75451 480.64743,253.50969 C 491.89167,242.26531 497.51397,228.64205 497.51435,212.63986 C 497.51397,196.63819 491.89167,183.01493 480.64743,171.77003 C 469.40247,160.52573 455.77921,154.90343 439.7776,154.90312 C 423.77535,154.90343 410.15209,160.52573 398.90777,171.77003 C 387.66289,183.01493 382.04059,196.63819 382.04086,212.63986 M 347.6583,254.48278 C 353.92909,262.91645 364.2006,273.62044 378.47286,286.59479 C 392.09586,294.3797 398.90749,301.94818 398.90777,309.30026 C 398.90749,311.46284 399.9887,318.9232 402.15141,331.68135 C 404.52979,345.521 405.82724,353.41384 406.04377,355.35991 C 407.34094,369.41577 400.20494,376.44364 384.63577,376.44355 C 380.74314,376.44364 376.20205,375.90304 371.01249,374.82173 C 354.14534,371.79443 339.00838,363.46911 325.60157,349.84572 C 314.14052,338.16876 305.70707,324.86986 300.3012,309.94898 C 299.43604,307.78672 299.00356,305.6243 299.00374,303.46171 C 299.00356,292.64976 306.68016,281.0808 322.03357,268.75479 C 336.08911,257.51039 344.63068,252.75306 347.6583,254.48278 M 347.98266,260.32133 C 345.38752,258.80785 337.81904,263.13269 325.2772,273.29588 C 311.43749,284.32443 304.51773,294.70406 304.51792,304.4348 C 304.51773,306.59739 304.8421,308.54357 305.49101,310.27335 C 317.38415,344.0073 338.68401,363.57723 369.39067,368.98318 C 373.9315,369.84825 377.93199,370.28074 381.39213,370.28064 C 395.66385,370.28074 402.15112,364.00971 400.85395,351.46754 C 400.63743,349.73772 399.44809,342.60173 397.28595,330.05953 C 395.33949,318.38259 394.3664,311.57096 394.36668,309.62462 C 394.3664,303.13751 388.20349,296.434 375.87795,289.51407 C 371.76908,287.13558 366.14678,281.72953 359.01103,273.29588 C 352.09103,264.86263 348.41492,260.53778 347.98266,260.32133 M 530.92381,254.48278 C 524.65237,262.91645 514.38086,273.62044 500.10926,286.59479 C 486.48561,294.3797 479.67398,301.94818 479.67434,309.30026 C 479.67398,311.46284 478.59277,318.9232 476.4307,331.68135 C 474.05168,345.521 472.75422,353.41384 472.53834,355.35991 C 471.24053,369.41577 478.37652,376.44364 493.94635,376.44355 C 497.83833,376.44364 502.37942,375.90304 507.56962,374.82173 C 524.43613,371.79443 539.57309,363.46911 552.98055,349.84572 C 564.44095,338.16876 572.8744,324.86986 578.28092,309.94898 C 579.14542,307.78672 579.57791,305.6243 579.57837,303.46171 C 579.57791,292.64976 571.90131,281.0808 556.54855,268.75479 C 542.49236,257.51039 533.95079,252.75306 530.92381,254.48278 M 530.59945,260.32133 C 533.19394,258.80785 540.87054,263.13269 553.62927,273.29588 C 567.2521,284.32443 574.06373,294.70406 574.06419,304.4348 C 574.06373,306.59739 573.73937,308.54357 573.0911,310.27335 C 561.19732,344.0073 539.89745,363.57723 509.19144,368.98318 C 504.64996,369.84825 500.64948,370.28074 497.18998,370.28064 C 482.91761,370.28074 476.43034,364.00971 477.72816,351.46754 C 477.94404,349.73772 479.13337,342.60173 481.29616,330.05953 C 483.24197,318.38259 484.21507,311.57096 484.21543,309.62462 C 484.21507,303.13751 490.37797,296.434 502.70417,289.51407 C 506.81238,287.13558 512.32656,281.72953 519.24672,273.29588 C 526.38231,264.86263 530.16655,260.53778 530.59945,260.32133 M 435.23651,99.112553 C 430.91134,98.68044 426.26214,98.68044 421.28887,99.112553 C 394.69076,101.49159 365.28181,117.926 333.06193,148.41584 C 309.05882,171.33784 287.32647,197.82752 267.86482,227.88496 C 267.21594,228.53393 265.59412,229.50702 262.99937,230.80423 C 260.62055,231.88568 258.24189,232.42629 255.86336,232.42605 C 246.34856,232.42629 240.51002,225.61466 238.34772,211.99113 C 236.61766,206.15285 235.75269,199.55746 235.75281,192.20495 C 235.75269,174.25712 239.96941,153.7141 248.403,130.57584 C 255.97134,109.60067 264.51291,92.409414 274.02773,79.002001 C 274.46006,78.569908 275.54127,77.380576 277.27137,75.434 C 283.10975,69.812096 291.75944,67.000946 303.22047,67.000543 C 314.46488,67.000946 321.49275,70.460823 324.30411,77.380182 L 322.03357,79.326365 C 318.141,73.920699 312.30246,71.217671 304.51792,71.217271 C 288.94829,71.217671 279.21739,75.650637 275.32519,84.516185 C 252.1871,122.35897 240.61814,157.60646 240.61827,190.25876 C 240.61814,198.26001 241.48311,205.28788 243.21318,211.34241 C 245.37547,221.72229 249.70032,226.91211 256.18773,226.91187 C 258.78249,226.91211 261.48552,226.04714 264.29682,224.31696 C 283.10975,195.12449 305.3827,169.0673 331.11575,146.14529 C 363.55188,117.16915 393.60955,101.49159 421.28887,99.112553 C 426.69462,98.68044 431.34383,98.68044 435.23651,99.112553 M 437.50706,99.112553 C 441.83158,98.68044 446.37267,98.68044 451.13033,99.112553 C 477.94404,101.49159 507.35299,117.926 539.35727,148.41584 C 563.35974,171.33784 585.09209,197.82752 604.55438,227.88496 C 605.20262,228.53393 606.82444,229.50702 609.41984,230.80423 C 612.01425,231.88568 614.50104,232.42629 616.8802,232.42605 C 626.39436,232.42629 632.2329,225.61466 634.39585,211.99113 C 635.90902,206.15285 636.66587,199.55746 636.66639,192.20495 C 636.66587,174.25712 632.55727,153.7141 624.34057,130.57584 C 616.77158,109.60067 608.23001,92.409414 598.71583,79.002001 C 598.06662,78.569908 596.87729,77.380576 595.14783,75.434 C 589.30881,69.812096 580.65912,67.000946 569.19873,67.000543 C 558.16992,67.000946 551.25017,70.460823 548.43945,77.380182 L 550.71,79.326365 C 554.60193,73.920699 560.44047,71.217671 568.22564,71.217271 C 583.79463,71.217671 593.52554,75.650637 597.41838,84.516185 C 620.33958,122.35897 631.80042,157.60646 631.80094,190.25876 C 631.80042,198.26001 630.93545,205.28788 629.20603,211.34241 C 627.25933,221.72229 622.93449,226.91211 616.23148,226.91187 C 613.85231,226.91211 611.2574,226.04714 608.44675,224.31696 C 589.41693,195.12449 567.14398,169.0673 541.62782,146.14529 C 508.97481,117.16915 478.80901,101.49159 451.13033,99.112553 C 445.72394,98.68044 441.18285,98.68044 437.50706,99.112553 M 365.82267,237.61587 C 354.57782,240.85974 342.14389,246.8064 328.52084,255.45587 C 303.86901,270.80929 291.5432,288.00055 291.54337,307.02971 C 291.5432,315.89581 294.35435,324.97798 299.97683,334.27626 C 300.62537,335.57385 302.57155,338.70937 305.81538,343.68281 C 331.11553,378.49794 376.41829,395.90545 441.72378,395.90537 L 441.72378,399.79774 C 375.12084,399.79781 328.73687,381.8497 302.57174,345.95336 C 300.84162,343.35857 298.89543,340.00682 296.73319,335.89808 C 290.89447,325.30234 287.9752,315.13896 287.97537,305.40789 C 287.9752,280.10771 305.49082,259.67281 340.5223,244.10314 C 345.71189,241.94095 353.82097,238.48107 364.84958,233.7235 L 365.82267,237.61587 M 303.22047,16.075436 C 310.35628,19.319524 316.84354,22.887522 322.68229,26.779439 C 336.73783,36.078301 346.68498,45.809203 352.52376,55.972176 L 349.28012,57.918358 C 344.95504,50.566533 338.14341,42.998054 328.8452,35.212896 C 318.89785,26.996125 310.03191,21.914432 302.24738,19.967801 L 303.22047,16.075436 M 332.08884,353.41372 C 331.65614,353.63008 330.46681,354.49505 328.52084,356.00863 C 314.68112,366.38838 303.00404,380.76849 293.48956,399.14901 L 290.24592,397.52719 C 301.70658,375.03807 314.89736,359.25238 329.8183,350.17009 L 332.08884,353.41372 M 352.19939,144.19911 C 363.01127,144.19944 368.41733,149.71362 368.41758,160.74166 C 368.41733,171.33784 363.01127,176.63578 352.19939,176.63549 C 341.60328,176.63578 336.30535,171.33784 336.30557,160.74166 C 336.30535,149.71362 341.60328,144.19944 352.19939,144.19911 M 352.19939,173.06749 C 360.20012,173.06778 364.2006,168.95918 364.20085,160.74166 C 364.2006,152.52477 360.20012,148.41616 352.19939,148.41584 C 343.98195,148.41616 339.87335,152.52477 339.87357,160.74166 C 339.87335,168.95918 343.98195,173.06778 352.19939,173.06749 M 357.71358,169.17512 L 355.44303,169.17512 L 352.84812,164.63403 L 351.55067,162.36348 L 348.30703,169.17512 L 346.36085,169.17512 L 350.90194,161.06603 L 346.36085,152.95693 L 348.30703,152.95693 L 350.90194,157.82239 C 351.33419,158.25519 351.55043,158.68767 351.55067,159.11984 L 351.55067,159.11984 L 352.19939,159.11984 C 352.4154,158.25519 352.63164,157.60646 352.84812,157.17366 L 355.44303,152.95693 L 357.71358,152.95693 L 352.84812,160.09294 L 357.71358,169.17512 M 335.00812,176.63549 C 346.03625,176.63578 351.55043,182.04184 351.55067,192.85367 C 351.55043,203.66606 346.03625,209.07212 335.00812,209.07186 C 324.41202,209.07212 319.11409,203.66606 319.11429,192.85367 C 319.11409,182.04184 324.41202,176.63578 335.00812,176.63549 M 335.00812,205.50386 C 343.2251,205.50412 347.3337,201.2874 347.33394,192.85367 C 347.3337,184.85299 343.2251,180.8525 335.00812,180.85221 C 326.79069,180.8525 322.68209,184.85299 322.68229,192.85367 C 322.68209,201.2874 326.79069,205.50412 335.00812,205.50386 M 341.17103,186.04203 L 335.98121,195.12422 L 335.98121,201.61149 L 334.35939,201.61149 L 334.35939,195.12422 L 329.16957,186.04203 L 331.11575,186.04203 C 333.06171,189.28595 334.35917,191.77274 335.00812,193.5024 L 335.00812,193.5024 C 335.87286,191.77274 337.17032,189.28595 338.90048,186.04203 L 341.17103,186.04203 M 330.14266,212.63986 C 340.73832,212.64012 346.03625,217.82993 346.03648,228.20932 C 346.03625,238.58919 340.73832,243.77901 330.14266,243.77878 C 319.76281,243.77901 314.573,238.58919 314.5732,228.20932 C 314.573,217.82993 319.76281,212.64012 330.14266,212.63986 M 330.14266,240.85951 C 337.92717,240.85974 341.81953,236.75113 341.81975,228.53368 C 341.81953,220.53296 337.92717,216.53248 330.14266,216.53223 C 321.92524,216.53248 317.81663,220.53296 317.81684,228.53368 C 317.81663,236.75113 321.92524,240.85974 330.14266,240.85951 M 334.68375,235.02096 L 325.2772,235.02096 L 325.2772,233.39914 L 332.41321,223.0195 L 326.25029,223.0195 L 326.25029,221.39768 L 334.03502,221.39768 L 334.03502,223.0195 L 327.22339,233.39914 L 334.68375,233.39914 L 334.68375,235.02096 M 524.7609,144.19911 C 513.94838,144.19944 508.54232,149.71362 508.54272,160.74166 C 508.54232,171.33784 513.94838,176.63578 524.7609,176.63549 C 535.35636,176.63578 540.6543,171.33784 540.65473,160.74166 C 540.6543,149.71362 535.35636,144.19944 524.7609,144.19911 M 524.7609,173.06749 C 516.75953,173.06778 512.75905,168.95918 512.75944,160.74166 C 512.75905,152.52477 516.75953,148.41616 524.7609,148.41584 C 532.9777,148.41616 537.0863,152.52477 537.08672,160.74166 C 537.0863,168.95918 532.9777,173.06778 524.7609,173.06749 M 541.95218,176.63549 C 531.13964,176.63578 525.73358,182.04184 525.73399,192.85367 C 525.73358,203.66606 531.13964,209.07212 541.95218,209.07186 C 552.54762,209.07212 557.84556,203.66606 557.846,192.85367 C 557.84556,182.04184 552.54762,176.63578 541.95218,176.63549 M 541.95218,205.50386 C 533.73455,205.50412 529.62594,201.2874 529.62636,192.85367 C 529.62594,184.85299 533.73455,180.8525 541.95218,180.85221 C 550.16896,180.8525 554.27756,184.85299 554.278,192.85367 C 554.27756,201.2874 550.16896,205.50412 541.95218,205.50386 M 546.81764,212.63986 C 536.43757,212.64012 531.24776,217.82993 531.24818,228.20932 C 531.24776,238.58919 536.43757,243.77901 546.81764,243.77878 C 557.41308,243.77901 562.71101,238.58919 562.71146,228.20932 C 562.71101,217.82993 557.41308,212.64012 546.81764,212.63986 M 546.81764,240.85951 C 539.03248,240.85974 535.14012,236.75113 535.14054,228.53368 C 535.14012,220.53296 539.03248,216.53248 546.81764,216.53223 C 555.03441,216.53248 559.14301,220.53296 559.14346,228.53368 C 559.14301,236.75113 555.03441,240.85974 546.81764,240.85951 M 529.62636,167.22894 L 528.3289,167.22894 L 526.70708,163.01221 L 521.51726,163.01221 L 519.89545,167.22894 L 518.59799,167.22894 L 523.13908,152.30821 L 524.7609,152.30821 L 529.62636,167.22894 M 526.38272,161.39039 L 525.08527,157.49803 C 524.86861,156.63337 524.54425,155.44404 524.11217,153.93002 L 524.11217,153.93002 L 523.46345,155.87621 C 523.46304,156.30901 523.2468,157.06585 522.81472,158.14675 L 521.84163,161.39039 L 526.38272,161.39039 M 545.19582,193.5024 C 546.70908,194.1514 547.46593,195.34074 547.46636,197.0704 C 547.46593,200.09807 546.06036,201.61176 543.24964,201.61149 L 538.38418,201.61149 L 538.38418,186.3664 L 542.92527,186.3664 C 545.73599,186.36668 547.14157,187.66414 547.142,190.25876 C 547.14157,191.77274 546.49284,192.85395 545.19582,193.5024 M 540.006,192.52931 L 542.27654,192.52931 C 544.43854,192.52959 545.51975,191.88086 545.52018,190.58313 C 545.51975,188.85347 544.43854,187.9885 542.27654,187.98822 L 540.006,187.98822 L 540.006,192.52931 M 540.006,199.98968 L 543.24964,199.98968 C 544.97914,199.98995 545.84411,199.01686 545.84454,197.0704 C 545.84411,195.34074 544.87102,194.47577 542.92527,194.47549 L 540.006,194.47549 L 540.006,199.98968 M 550.71,232.10169 C 550.27708,235.12932 548.65526,236.64301 545.84454,236.64278 C 541.95175,236.64301 540.00557,234.15623 540.006,229.18241 C 540.00557,223.99284 541.95175,221.39793 545.84454,221.39768 C 548.22278,221.39793 549.8446,222.80351 550.71,225.61441 L 549.08818,226.5875 C 548.65526,224.42532 547.57405,223.34411 545.84454,223.34386 C 543.03296,223.34411 541.62739,225.29029 541.62782,229.18241 C 541.62739,233.07501 543.03296,235.02119 545.84454,235.02096 C 547.79029,235.02119 548.87151,233.93998 549.08818,231.77732 L 550.71,232.10169 M 568.87437,16.075436 C 561.73792,19.319524 555.25065,22.887522 549.41255,26.779439 C 535.35636,36.078301 525.40922,45.809203 519.57108,55.972176 L 522.81472,57.918358 C 527.13916,50.566533 534.05891,42.889932 543.574,34.888533 C 553.30447,26.888004 561.95416,21.914432 569.5231,19.967801 L 568.87437,16.075436 M 548.11509,353.41372 C 548.54714,353.63008 549.73647,354.49505 551.68309,356.00863 C 565.52216,366.38838 577.09112,380.76849 586.39001,399.14901 L 589.95801,397.52719 C 578.28046,375.03807 564.98156,359.25238 550.06127,350.17009 L 548.11509,353.41372 M 515.35435,237.61587 C 526.59855,240.85974 539.03248,246.8064 552.65618,255.45587 C 577.30736,270.80929 589.63317,288.00055 589.63365,307.02971 C 589.63317,315.89581 586.82203,324.97798 581.20019,334.27626 C 580.551,335.57385 578.60482,338.70937 575.36165,343.68281 C 550.06084,378.49794 504.8662,395.90545 439.7776,395.90537 L 439.7776,399.79774 C 506.16366,399.79781 552.4395,381.8497 578.60528,345.95336 C 580.551,343.35857 582.6053,340.00682 584.76819,335.89808 C 590.39002,325.30234 593.20117,315.13896 593.20165,305.40789 C 593.20117,280.10771 575.68555,259.67281 540.65473,244.10314 C 535.46448,241.94095 527.3554,238.48107 516.32744,233.7235 L 515.35435,237.61587 M 440.15625,225.21875 C 429.01266,225.25078 417.87719,226.69502 408.6875,229.375 L 408.625,229.375 L 408.5625,229.40625 C 405.32729,230.68176 403.6691,233.75136 403.84375,237.0625 C 404.0184,240.37364 405.72447,244.01132 408.75,247.4375 C 414.80105,254.28986 426.22435,260.33128 442.34375,260.25 L 442.375,260.25 C 454.81881,259.88174 465.4674,253.72962 471.53125,247.03125 C 474.56317,243.68206 476.50492,240.19744 476.8125,236.9375 C 476.96629,235.30753 476.65931,233.71202 475.78125,232.375 C 474.90319,231.03798 473.48683,230.03789 471.6875,229.46875 C 462.45722,226.54917 451.29984,225.18672 440.15625,225.21875 z M 440.1875,228.28125 C 451.087,228.25099 461.96353,229.55467 470.78125,232.34375 C 472.0782,232.75398 472.83079,233.34534 473.28125,234.03125 C 473.73171,234.71716 473.9172,235.54655 473.8125,236.65625 C 473.60309,238.87566 472.06117,241.99496 469.3125,245.03125 C 463.81517,251.10383 453.77745,256.90978 442.28125,257.25 C 426.92181,257.32745 416.38832,251.53937 411,245.4375 C 408.30584,242.38657 406.93669,239.26064 406.8125,236.90625 C 406.69105,234.6038 407.47647,233.11137 409.53125,232.25 C 409.54027,232.24622 409.55343,232.25376 409.5625,232.25 C 418.39153,229.679 429.29948,228.31148 440.1875,228.28125 z M 420.19324,246.24329 L 417.65027,246.24329 L 417.65027,235.05774 L 425.2616,235.05774 L 425.2616,236.45227 L 420.19324,236.45227 L 420.19324,239.71594 L 424.41785,239.71594 L 424.41785,241.10461 L 420.19324,241.10461 L 420.19324,246.24329 M 430.45886,235.01086 C 431.62682,235.01088 432.56823,235.22181 433.28308,235.64368 C 433.99792,236.06166 434.50963,236.68275 434.81824,237.50696 C 435.12682,238.33118 435.28112,239.3722 435.28113,240.63 C 435.28112,241.92298 435.1112,242.99329 434.77136,243.84094 C 434.43151,244.68469 433.90417,245.31165 433.18933,245.7218 C 432.47839,246.13196 431.56042,246.33704 430.43542,246.33704 C 429.35339,246.33704 428.46472,246.13586 427.76941,245.73352 C 427.07409,245.33118 426.56042,244.70813 426.22839,243.86438 C 425.89636,243.02063 425.73035,241.94251 425.73035,240.63 C 425.74206,238.75501 426.13464,237.35267 426.90808,236.42297 C 427.68542,235.4933 428.86901,235.02259 430.45886,235.01086 M 428.36707,240.63 C 428.41003,241.9386 428.5487,242.95423 428.78308,243.67688 C 429.01745,244.39954 429.56823,244.76673 430.43542,244.77844 C 431.07604,244.77844 431.55261,244.58508 431.86511,244.19836 C 432.18151,243.80774 432.38073,243.32727 432.46277,242.75696 C 432.5487,242.18274 432.59167,241.48938 432.59167,240.67688 C 432.59167,239.84486 432.55456,239.1554 432.48035,238.60852 C 432.41003,238.06165 432.22057,237.58704 431.91199,237.18469 C 431.60339,236.77845 431.13464,236.57337 430.50574,236.56946 C 429.6112,236.56947 429.03112,236.9347 428.7655,237.66516 C 428.49987,238.39564 428.36706,239.38392 428.36707,240.63 M 442.1366,241.27454 L 445.32996,246.24329 L 442.37683,246.24329 L 438.94324,240.19641 L 440.31433,240.19641 C 440.34948,240.19642 440.43737,240.20032 440.578,240.20813 C 440.71862,240.21595 440.83776,240.21985 440.93542,240.21985 C 442.27526,240.21985 442.96276,239.63587 442.99792,238.4679 C 442.99792,237.85072 442.83971,237.36048 442.52332,236.99719 C 442.2069,236.63392 441.78893,236.45228 441.26941,236.45227 L 438.99011,236.45227 L 438.99011,246.24329 L 436.44714,246.24329 L 436.44714,235.05774 L 441.58582,235.05774 C 444.0819,235.05775 445.32995,236.13783 445.32996,238.29797 C 445.29479,239.18079 445.04088,239.84095 444.56824,240.27844 C 444.09557,240.71595 443.57214,241.0011 442.99792,241.13391 C 442.56042,241.23938 442.28893,241.29212 442.18347,241.29211 C 442.15222,241.29212 442.13659,241.28626 442.1366,241.27454 M 454.01941,245.62219 C 454.0194,245.70032 453.73034,245.83508 453.15222,246.02649 C 452.578,246.21399 451.87487,246.3175 451.04285,246.33704 C 449.10534,246.33704 447.75183,245.8468 446.9823,244.86633 C 446.21667,243.88196 445.83386,242.34876 445.83386,240.26672 C 445.87292,239.14564 446.0448,238.20228 446.34949,237.43665 C 446.65808,236.67103 447.16199,236.07533 447.86121,235.64954 C 448.56042,235.22377 449.50183,235.00306 450.68542,234.98743 C 451.39245,234.98744 452.02722,235.04213 452.58972,235.15149 C 453.15612,235.25697 453.56042,235.34681 453.80261,235.42102 L 454.28308,237.3136 C 454.07604,237.16908 453.70495,236.98939 453.1698,236.77454 C 452.63464,236.5597 451.99011,236.45228 451.23621,236.45227 C 450.19714,236.45228 449.49987,236.81556 449.14441,237.54211 C 448.79284,238.26868 448.61706,239.17689 448.61707,240.26672 C 448.61706,241.10657 448.66394,241.84681 448.75769,242.48743 C 448.85534,243.12805 449.06628,243.67688 449.3905,244.13391 C 449.71862,244.59094 450.19714,244.83899 450.82605,244.87805 C 451.56432,244.87805 452.17956,244.80969 452.67175,244.67297 C 453.16393,244.53235 453.54284,244.37415 453.80847,244.19836 C 454.05065,244.04212 454.17174,243.95618 454.17175,243.94055 C 454.17174,243.94055 454.16979,243.94055 454.16589,243.94055 L 454.01941,245.62219 M 455.19714,235.05774 L 462.80847,235.05774 L 462.80847,236.45227 L 457.74011,236.45227 L 457.74011,239.71594 L 461.96472,239.71594 L 461.96472,241.10461 L 457.74011,241.10461 L 457.74011,244.84875 L 462.87878,244.84875 L 462.87878,246.24329 L 455.19714,246.24329 L 455.19714,235.05774"
       style="font-size:664.29693604px;font-style:normal;font-variant:normal;font-weight:normal;font-stretch:normal;text-align:start;line-height:125%;writing-mode:lr-tb;text-anchor:start;fill:#000000;fill-opacity:1;stroke:none;stroke-width:1px;stroke-linecap:butt;stroke-linejoin:miter;stroke-opacity:1;font-family:SWDEV10"
       id="text1872" />
  </g>
</svg>
