<?xml version="1.0" encoding="UTF-8" standalone="no"?>
<!-- Created with Inkscape (http://www.inkscape.org/) -->
<svg
   xmlns:dc="http://purl.org/dc/elements/1.1/"
   xmlns:cc="http://creativecommons.org/ns#"
   xmlns:rdf="http://www.w3.org/1999/02/22-rdf-syntax-ns#"
   xmlns:svg="http://www.w3.org/2000/svg"
   xmlns="http://www.w3.org/2000/svg"
   xmlns:sodipodi="http://sodipodi.sourceforge.net/DTD/sodipodi-0.dtd"
   xmlns:inkscape="http://www.inkscape.org/namespaces/inkscape"
   width="800"
   height="480"
   id="svg2"
   sodipodi:version="0.32"
   inkscape:version="0.46"
   sodipodi:docname="paths.svg"
   inkscape:output_extension="org.inkscape.output.svg.inkscape"
   version="1.0">
  <defs
     id="defs4">
    <inkscape:perspective
       sodipodi:type="inkscape:persp3d"
       inkscape:vp_x="0 : 526.18109 : 1"
       inkscape:vp_y="0 : 1000 : 0"
       inkscape:vp_z="744.09448 : 526.18109 : 1"
       inkscape:persp3d-origin="372.04724 : 350.78739 : 1"
       id="perspective10" />
  </defs>
  <sodipodi:namedview
     id="base"
     pagecolor="#ffffff"
     bordercolor="#666666"
     borderopacity="1.0"
     gridtolerance="10000"
     guidetolerance="10"
     objecttolerance="10"
     inkscape:pageopacity="0.0"
     inkscape:pageshadow="2"
     inkscape:zoom="1.15"
     inkscape:cx="400"
     inkscape:cy="240"
     inkscape:document-units="px"
     inkscape:current-layer="layer1"
     showgrid="false"
     inkscape:window-width="1280"
     inkscape:window-height="778"
     inkscape:window-x="-5"
     inkscape:window-y="-3" />
  <metadata
     id="metadata7">
    <rdf:RDF>
      <cc:Work
         rdf:about="">
        <dc:format>image/svg+xml</dc:format>
        <dc:type
           rdf:resource="http://purl.org/dc/dcmitype/StillImage" />
      </cc:Work>
    </rdf:RDF>
  </metadata>
  <g
     inkscape:label="Layer 1"
     inkscape:groupmode="layer"
     id="layer1">
    <rect
       style="fill:#ffffff;fill-rule:evenodd;stroke:#000000;stroke-width:0.99833602000000021px;stroke-linecap:butt;stroke-linejoin:miter;stroke-opacity:1"
       id="rect2383"
       width="799.00165"
       height="479.00168"
       x="0.49916801"
       y="0.49915418" />
    <path
       style="fill:none;fill-rule:evenodd;stroke:#000000;stroke-width:1px;stroke-linecap:butt;stroke-linejoin:miter;stroke-opacity:1"
       d="M 146.95652,218.26087 L 306.95652,133.91304 L 473.04348,126.95652 L 675.65217,40 C 675.65217,40 890.43478,511.30435 610.43478,363.47826 C 330.43478,215.65217 147.82609,219.13043 146.95652,218.26087 z"
       id="path3327"
       name="path1" />
    <path
       sodipodi:type="arc"
       style="opacity:1;fill:#ffffff;fill-opacity:1;stroke:#000000;stroke-width:2;stroke-miterlimit:4;stroke-dasharray:none;stroke-opacity:1"
       id="path2388"
       sodipodi:cx="97.826088"
       sodipodi:cy="128.26086"
       sodipodi:rx="32.608696"
       sodipodi:ry="32.608696"
       d="M 130.43478,128.26086 A 32.608696,32.608696 0 1 1 65.217392,128.26086 A 32.608696,32.608696 0 1 1 130.43478,128.26086 z"
       name="ball" />
    <path
       style="fill:none;fill-rule:evenodd;stroke:#000000;stroke-width:1px;stroke-linecap:butt;stroke-linejoin:miter;stroke-opacity:1"
       d="M 131.30435,378.26087 L 319.13043,56.521739 L 664.34783,250.43478 L 531.30435,414.78261 L 131.30435,378.26087 z"
       id="path2389"
       name="path0" />
    <path
       style="fill:none;fill-rule:evenodd;stroke:#000000;stroke-width:1px;stroke-linecap:butt;stroke-linejoin:miter;stroke-opacity:1"
       d="M 81.73913,330.43478 L 153.91304,148.69565 C 153.91304,148.69565 287.82609,80.869565 478.26087,186.08696 C 668.69565,291.30435 596.52174,375.65217 596.52174,375.65217 C 596.52174,375.65217 409.56522,201.73913 307.82609,234.78261 C 206.08696,267.82609 81.73913,332.17391 81.73913,330.43478 z"
       id="path2390"
       name="path3" />
    <path
       style="fill:none;fill-rule:evenodd;stroke:#000000;stroke-width:1px;stroke-linecap:butt;stroke-linejoin:miter;stroke-opacity:1"
       d="M 48.695652,59.04348 C 48.695652,59.04348 356.52174,444.26087 640,60.78261 C 690.43478,421.73913 497.39131,444.34782 497.39131,444.34782 L 48.695652,59.04348 z"
       id="path2416"
       name="path4"
       sodipodi:nodetypes="ccc" />
    <path
       sodipodi:type="star"
       style="opacity:1;fill:#0000ff;fill-opacity:1;stroke:none;stroke-width:1;stroke-miterlimit:4;stroke-dasharray:none;stroke-opacity:1"
       id="path2422"
       sodipodi:sides="5"
       sodipodi:cx="45.217392"
       sodipodi:cy="202.6087"
       sodipodi:r1="15.963095"
       sodipodi:r2="8.9776363"
       sodipodi:arg1="1.0584069"
       sodipodi:arg2="1.6637629"
       inkscape:flatsided="false"
       inkscape:rounded="0"
       inkscape:randomized="0"
       d="M 53.043478,216.52175 L 44.383974,211.54757 L 34.403695,214.35112 L 36.458483,204.57834 L 30.708074,195.95287 L 40.637507,194.88714 L 47.063837,186.75276 L 51.145777,195.86688 L 60.867876,199.46502 L 53.461221,206.16359 L 53.043478,216.52175 z"
       name="star" />
    <path
       style="fill:none;fill-rule:evenodd;stroke:#000000;stroke-width:1px;stroke-linecap:butt;stroke-linejoin:miter;stroke-opacity:1"
       d="M 43.478261,377.3913 C 43.478261,375.15594 43.478261,367.47436 43.478261,362.6087 C 43.478261,356.5349 43.82384,351.66116 45.217391,346.08696 C 46.432132,341.22799 47.330183,335.77442 49.565217,331.30435 C 51.709987,327.01481 53.158815,323.24759 54.782609,320 C 56.969099,315.62702 58.904114,312.20963 60,307.82609 C 61.071984,303.53815 64.117569,299.59095 66.086957,295.65217 C 68.354281,291.11752 70.035324,286.88587 72.173913,282.6087 C 74.463383,278.02975 76.357982,275.11012 78.26087,271.30435 C 80.362274,267.10154 81.673641,264.4788 83.478261,260.86957 C 85.384428,257.05723 87.115007,252.72651 88.695652,249.56522 C 90.785089,245.38634 91.981186,243.86371 93.913043,240 C 96.345943,235.1342 98.537024,230.35643 101.73913,226.08696 C 103.84255,223.2824 105.21615,219.1354 106.08696,215.65217 C 107.2337,211.06519 111.84424,205.87674 113.91304,201.73913 C 116.6842,196.19683 121.13411,190.24617 122.6087,184.34783 C 123.75303,179.7705 128.36186,174.58063 130.43478,170.43478 C 133.60012,164.1041 136.57395,157.9014 140.86957,152.17391 C 143.83766,148.21645 146.59925,142.45368 148.69565,138.26087 C 151.20826,133.23564 153.91618,129.55895 156.52174,124.34783 C 158.63605,120.1192 161.6441,116.71181 163.47826,113.04348 C 165.49728,109.00544 167.99392,106.78869 170.43478,104.34783 C 174.26734,100.51527 175.89666,98.573411 180,96.521739 C 181.59511,95.724186 189.25025,107.98584 190.43478,109.56522 C 190.78261,110.02899 190.43478,110.72464 190.43478,111.30435 C 190.43478,117.608 198.26087,124.47986 198.26087,132.17391 C 198.26087,137.97101 198.26087,143.76812 198.26087,149.56522 C 198.26087,156.94675 195.65217,164.10431 195.65217,171.30435 C 195.65217,177.16921 192.7035,184.83816 191.30435,190.43478 C 190.01181,195.60495 189.29025,199.68036 186.95652,204.34783 C 184.3998,209.46128 182.87195,215.20549 181.73913,220.86957 C 180.44927,227.31887 178.26087,231.32722 178.26087,238.26087 C 178.26087,243.52798 177.3913,249.2874 177.3913,254.78261 C 177.3913,259.33044 183.71261,260.92815 186.95652,261.73913 C 191.8479,262.96197 196.75284,263.31864 200.86957,264.34783 C 208.71812,266.30996 214.67526,260.23832 220.86957,256.52174 C 231.71804,250.01265 235.89654,239.75563 244.34783,231.30435 C 257.04866,218.60352 267.4397,201.85497 279.13043,187.82609 C 285.88837,179.71657 290.26288,170.08427 296.52174,161.73913 C 300.02796,157.06417 304.84164,152.96477 308.69565,147.82609 C 313.14696,141.89101 321.11262,136.27869 326.08696,131.30435 C 330.68902,126.70228 335.01529,121.77343 340.86957,118.26087 C 348.24965,113.83282 355.77161,107.73651 362.6087,102.6087 C 367.57162,98.886502 372.66932,96.584963 377.3913,93.043478 C 382.22002,89.421944 388.65069,88.294592 393.91304,84.347826 C 399.81012,79.925019 408.21707,79.054587 413.91304,74.782609 C 417.72201,71.925887 424.13323,70.488431 427.82609,69.565217 C 433.7285,68.089614 438.93679,71.642307 443.47826,73.913043 C 444.63768,74.492754 445.7971,75.072464 446.95652,75.652174 C 457.41843,80.883128 467.45945,92.676846 475.65217,100.86957 C 483.99364,109.21103 490.22347,117.17999 498.26087,125.21739 C 501.78624,128.74276 505.05816,132.40657 506.08696,136.52174 C 507.42393,141.86964 508.87924,146.27055 511.30435,148.69565 C 514.77206,152.16336 519.84469,155.03725 525.21739,158.26087 C 534.97965,164.11823 546.76574,166.02336 557.3913,169.56522 C 564.41346,171.90594 574.17753,170.43478 581.73913,170.43478 C 590.06686,170.43478 597.17929,167.06253 604.34783,163.47826 C 612.40683,159.44876 617.54952,153.75483 623.47826,147.82609 C 630.16939,141.13496 636.09242,133.6159 641.73913,126.08696 C 645.90031,120.53872 652.13524,115.9936 655.65217,111.30435 C 658.52711,107.4711 664.05243,104.42168 667.82609,103.47826 C 673.9494,101.94743 680.2182,99.608534 686.95652,98.26087 C 692.15126,97.221923 700.33884,97.910798 705.21739,99.130435 C 714.53544,101.45995 722.49226,105.59396 730.43478,109.56522 C 735.78604,112.24085 739.03939,118.71918 742.6087,123.47826 C 747.19181,129.58908 749.93083,135.51383 753.04348,141.73913 C 756.04198,147.73614 756.72287,156.4567 758.26087,162.6087 C 759.78909,168.72157 759.13043,175.39487 759.13043,181.73913 C 759.13043,188.11594 759.13043,194.49275 759.13043,200.86957 C 759.13043,207.53623 759.13043,214.2029 759.13043,220.86957 C 759.13043,227.06273 756.52174,232.96249 756.52174,239.13043 C 756.52174,245.47702 748.52217,256.98436 746.08696,263.47826 C 740.36145,278.74628 722.51095,301.83687 711.30435,313.04348 C 695.91152,328.4363 672.78479,351.39058 652.17391,358.26087 C 639.9969,362.31987 626.85111,372.22662 614.78261,378.26087 C 600.45429,385.42503 584.65862,388.54025 570.43478,395.65217 C 563.43223,399.15345 552.81512,397.86415 545.21739,399.13043 C 532.00603,401.33233 518.16083,396.55508 505.21739,400.86957 C 493.54052,404.76186 474.34815,400.86957 461.73913,400.86957 C 453.51732,400.86957 445.34692,401.73913 437.3913,401.73913 C 427.79217,401.73913 417.99655,402.6087 408.69565,402.6087 C 400.26516,402.6087 392.2452,406.24661 384.34783,407.82609 C 369.92178,410.7113 356.92388,421.91442 343.47826,426.95652 C 336.10314,429.72219 328.91429,433.80372 321.73913,437.3913 C 314.60454,440.9586 308.85591,443.4382 301.73913,445.21739 C 297.48722,446.28037 291.33356,445.21739 286.95652,445.21739 C 279.48976,445.21739 272.49766,444.34783 265.21739,444.34783 C 258.84058,444.34783 252.46377,444.34783 246.08696,444.34783 C 239.55638,444.34783 236.55783,444.36587 231.30435,441.73913 C 226.26795,439.22093 222.96844,437.69863 218.26087,436.52174 C 213.23028,435.26409 209.68525,433.07349 206.08696,432.17391 C 202.40187,431.25264 200.86957,427.07236 200.86957,422.6087 C 200.86957,414.72393 203.10756,410.76276 206.95652,404.34783 C 210.45175,398.52244 218.8004,391.82164 224.34783,390.43478 C 234.38776,387.9248 243.86432,379.40105 253.91304,377.3913 C 266.62049,374.84982 278.54122,369.79277 291.30435,366.95652 C 313.34872,362.05777 339.15654,363.47826 361.73913,363.47826 C 377.37531,363.47826 392.25826,360 407.82609,360 C 415.57172,360 424.14329,360.56265 431.30435,359.13043 C 439.09124,357.57306 446.18773,355.16701 453.91304,351.30435 C 464.94084,345.79045 477.05742,341.47129 488.69565,335.65217 C 496.20346,331.89827 504.57917,329.12485 512.17391,326.08696 C 525.10258,320.91549 537.31615,315.68975 549.56522,309.56522 C 556.86324,305.91621 564.10793,302.009 571.30435,299.13043 C 578.07293,296.423 587.222,291.03886 592.17391,286.08696 C 602.27691,275.98396 613.80009,271.39847 624.34783,262.6087 C 628.99013,258.74011 633.80075,250.99625 634.78261,246.08696 C 635.60491,241.97544 637.3913,237.87281 637.3913,232.17391 C 637.3913,229.63372 629.1227,225.97633 626.08696,225.21739 C 624.92754,224.92754 623.76812,224.63768 622.6087,224.34783 C 614.0581,222.21018 605.7443,222.08825 597.3913,220 C 590.61764,218.30658 580.95618,220 573.91304,220 C 567.725,220 561.08555,221.30491 555.65217,223.47826 C 549.65403,225.87752 541.14901,226.95652 534.78261,226.95652 C 532.3924,226.95652 530.14493,228.11594 527.82609,228.69565 C 515.47833,231.78259 503.35674,234.37821 491.30435,237.3913 C 480.54724,240.08058 466.20724,244.72247 456.52174,249.56522 C 446.98776,254.33221 434.48237,256.5968 424.34783,259.13043 C 397.93539,265.73354 373.63519,278.35349 347.82609,286.95652 C 344.34783,288.11594 340.86957,289.27536 337.3913,290.43478 C 328.07131,293.54145 319.17311,294.60016 309.56522,296.52174 C 301.90093,298.0546 293.87146,300.86957 286.08696,300.86957 C 278.05223,300.86957 268.7808,306.24384 260.86957,307.82609 C 248.90419,310.21916 236.84767,317.43485 226.08696,321.73913 C 219.05364,324.55246 213.79595,327.20069 206.95652,331.30435 C 200.80755,334.99373 191.17941,339.16167 184.34783,340.86957 C 176.83394,342.74804 169.6941,349.33975 162.6087,352.17391 C 156.77928,354.50568 147.21488,361.48077 142.6087,366.08696 C 137.9838,370.71185 130.75737,373.19775 125.21739,376.52174 C 118.25258,380.70063 112.05597,387.17761 106.08696,389.56522 C 103.71436,390.51425 97.386305,397.68782 95.652174,400 C 93.413788,402.98451 92.70049,405.90337 91.304348,408.69565 C 88.820576,413.66319 83.265925,417.60364 79.130435,421.73913 C 75.931212,424.93835 70.585777,427.31581 67.826087,428.69565 C 65.085507,430.06594 57.927428,428.69565 54.782609,428.69565 C 52.103949,428.69565 49.527973,423.40377 48.695652,421.73913 C 46.924541,418.19691 45.493078,416.20355 43.478261,412.17391 C 41.538088,408.29357 40.869565,405.41968 40.869565,400.86957 C 40.869565,396.52174 40.869565,392.17391 40.869565,387.82609 C 40.869565,383.53776 43.478261,382.10236 43.478261,377.3913 z"
       id="path2424"
       name="path2" />
  </g>
</svg>
