<?xml version="1.0" encoding="UTF-8" standalone="no"?>
<!-- Created with Inkscape (http://www.inkscape.org/) -->
<svg
   xmlns:dc="http://purl.org/dc/elements/1.1/"
   xmlns:cc="http://creativecommons.org/ns#"
   xmlns:rdf="http://www.w3.org/1999/02/22-rdf-syntax-ns#"
   xmlns:svg="http://www.w3.org/2000/svg"
   xmlns="http://www.w3.org/2000/svg"
   xmlns:sodipodi="http://sodipodi.sourceforge.net/DTD/sodipodi-0.dtd"
   xmlns:inkscape="http://www.inkscape.org/namespaces/inkscape"
   width="800"
   height="480"
   id="svg2"
   sodipodi:version="0.32"
   inkscape:version="0.46"
   version="1.0"
   sodipodi:docname="public.svg"
   inkscape:output_extension="org.inkscape.output.svg.inkscape">
  <defs
     id="defs4">
    <inkscape:perspective
       sodipodi:type="inkscape:persp3d"
       inkscape:vp_x="0 : 526.18109 : 1"
       inkscape:vp_y="0 : 1000 : 0"
       inkscape:vp_z="744.09448 : 526.18109 : 1"
       inkscape:persp3d-origin="372.04724 : 350.78739 : 1"
       id="perspective10" />
  </defs>
  <sodipodi:namedview
     id="base"
     pagecolor="#ffffff"
     bordercolor="#666666"
     borderopacity="1.0"
     gridtolerance="10000"
     guidetolerance="10"
     objecttolerance="10"
     inkscape:pageopacity="0.0"
     inkscape:pageshadow="2"
     inkscape:zoom="1.1604167"
     inkscape:cx="400"
     inkscape:cy="230.53421"
     inkscape:document-units="px"
     inkscape:current-layer="layer1"
     showgrid="false"
     inkscape:window-width="1280"
     inkscape:window-height="778"
     inkscape:window-x="-5"
     inkscape:window-y="-3" />
  <metadata
     id="metadata7">
    <rdf:RDF>
      <cc:Work
         rdf:about="">
        <dc:format>image/svg+xml</dc:format>
        <dc:type
           rdf:resource="http://purl.org/dc/dcmitype/StillImage" />
      </cc:Work>
    </rdf:RDF>
  </metadata>
  <g
     inkscape:label="Layer 1"
     inkscape:groupmode="layer"
     id="layer1">
    <rect
       style="opacity:1;fill:#ffffff;fill-opacity:1;fill-rule:evenodd;stroke:none;stroke-width:4.30000019;stroke-linecap:round;stroke-linejoin:round;stroke-miterlimit:4;stroke-dasharray:none;stroke-opacity:1"
       id="rect2465"
       width="800"
       height="480"
       x="0"
       y="-1.4210855e-14"
       name="background"
       order="0" />
    <path
       style="fill:#00ffff;fill-rule:evenodd;stroke:#000000;stroke-width:3;stroke-linecap:butt;stroke-linejoin:miter;stroke-opacity:1;stroke-miterlimit:4;stroke-dasharray:none"
       d="M 24.080265,206.42141 C 23.617305,204.85733 26.663705,199.24784 28.762545,195.05017 C 30.560305,191.45464 33.909765,188.12873 37.458195,186.35452 C 41.176925,184.49515 44.371595,183.18782 48.160535,181.67224 C 52.451735,179.95576 57.025435,180.12491 61.538465,178.99666 C 64.870995,178.16353 68.335755,177.79901 71.571905,176.98997 C 74.699035,176.20819 78.346685,176.32107 81.605355,176.32107 C 85.172795,176.32107 88.740245,176.32107 92.307695,176.32107 C 96.275385,176.32107 97.873035,178.77589 102.34114,177.65887 C 108.25469,176.18048 112.53366,171.39475 117.05686,167.62542 C 120.70294,164.58702 123.37958,163.36916 127.7592,162.27425 C 131.79527,161.26523 136.01081,161.21469 139.79934,160.26756 C 143.64747,159.30553 147.57807,160.93646 151.17057,160.93646 C 154.38926,160.93646 158.57436,162.96611 161.20402,164.28094 C 165.08432,166.22109 168.19151,168.74099 171.90636,170.9699 C 175.79545,173.30336 179.60307,174.48381 183.2776,176.32107 C 187.26541,178.31498 189.98094,181.01773 193.31104,184.34783 C 196.54013,187.57692 199.90034,191.12926 203.34449,193.71238 C 207.2759,196.66094 210.8273,197.78823 214.71572,199.73244 C 217.19949,200.97433 224.99217,198.21227 227.42475,197.72576 C 231.77584,196.85554 238.19752,197.40891 242.14047,198.39465 C 248.51921,199.98934 254.77003,202.36829 260.20067,205.08361 C 265.23753,207.60204 265.47687,213.62931 267.55853,217.79264 C 272.50405,227.68368 270.75222,242.45674 272.9097,253.24415 C 273.27029,255.04707 273.80157,256.8116 274.2475,258.59532 C 275.47406,263.50157 275.58529,268.26553 275.58529,273.31104 C 275.58529,277.88927 275.07299,280.04978 271.57191,282.67559 C 266.14286,286.74738 260.43389,288.9718 253.51171,290.70234 C 249.00136,291.82993 244.09288,293.40507 240.13378,295.38462 C 233.86581,298.51861 228.01469,301.43627 221.40469,304.08027 C 214.279,306.93055 206.34655,310.2405 200.6689,314.78261 C 197.21285,317.54745 192.05697,319.98326 187.95987,320.80268 C 181.13931,322.16679 174.76971,322.42798 167.89298,324.14716 C 161.32079,325.79021 152.46839,325.48495 145.8194,325.48495 C 136.62059,325.48495 125.90118,327.06057 117.05686,328.82943 C 112.02237,329.83633 106.18003,329.49833 101.00335,329.49833 C 97.136595,329.49833 93.086385,329.693 89.632105,328.82943 C 86.303415,327.99726 82.762725,328.28266 79.598665,327.49164 C 75.863985,326.55797 71.832315,325.71728 68.227425,324.81606 C 62.895165,323.48299 57.539255,320.39348 52.842805,317.4582 C 48.655075,314.84086 45.035465,312.99534 41.471575,309.43144 C 38.124645,306.08451 34.865635,302.8255 31.438125,299.398 C 28.255195,296.21507 25.888685,292.51076 22.742475,289.36455 C 19.969095,286.59117 17.80929,282.56401 15.384615,279.33111 C 12.28103,275.19299 10.931567,269.75611 8.6956522,265.28428 C 6.7497742,261.39253 7.0690072,256.77102 6.0200672,252.57525 C 5.1847972,249.23417 5.3511702,245.38114 5.3511702,241.87291 C 5.3511702,237.51942 5.5695452,234.0783 7.3578592,230.50167 C 9.2007282,226.81594 12.324701,223.65625 14.715719,220.46823 C 17.150812,217.22144 17.710246,213.57698 20.066885,210.43479 C 22.620625,207.02981 17.615258,210.30041 24.080265,206.42141 z"
       id="path2405"
       name="publicCloud5"
       order="5" />
    <path
       style="fill:#00ffff;fill-rule:evenodd;stroke:#000000;stroke-width:3;stroke-linecap:butt;stroke-linejoin:miter;stroke-opacity:1;stroke-miterlimit:4;stroke-dasharray:none"
       d="M 544.73585,209.58948 C 544.27289,208.0254 547.31929,202.41591 549.41813,198.21824 C 551.21589,194.62271 554.56535,191.2968 558.11378,189.52259 C 561.83251,187.66322 565.02718,186.35589 568.81612,184.84031 C 573.10732,183.12383 577.68102,183.29298 582.19405,182.16473 C 585.52658,181.3316 588.99134,180.96708 592.22749,180.15804 C 595.35462,179.37626 599.00227,179.48914 602.26094,179.48914 C 605.82838,179.48914 609.39583,179.48914 612.96328,179.48914 C 616.93097,179.48914 618.52862,181.94396 622.99672,180.82694 C 628.91027,179.34855 633.18924,174.56282 637.71244,170.79349 C 641.35852,167.75509 644.03516,166.53723 648.41478,165.44232 C 652.45085,164.4333 656.66639,164.38276 660.45492,163.43563 C 664.30305,162.4736 668.23365,164.10453 671.82615,164.10453 C 675.04484,164.10453 679.22994,166.13418 681.8596,167.44901 C 685.7399,169.38916 688.84709,171.90906 692.56194,174.13797 C 696.45103,176.47143 700.25865,177.65188 703.93318,179.48914 C 707.92099,181.48305 710.63652,184.1858 713.96662,187.5159 C 717.19571,190.74499 720.55592,194.29733 724.00007,196.88045 C 727.93148,199.82901 731.48288,200.9563 735.3713,202.90051 C 737.85507,204.1424 745.64775,201.38034 748.08033,200.89383 C 752.43142,200.02361 758.8531,200.57698 762.79605,201.56272 C 769.17479,203.15741 775.42561,205.53636 780.85625,208.25168 C 785.89311,210.77011 786.13245,216.79738 788.21411,220.96071 C 793.15963,230.85175 791.4078,245.62481 793.56528,256.41222 C 793.92587,258.21514 794.45715,259.97967 794.90308,261.76339 C 796.12964,266.66964 796.24087,271.4336 796.24087,276.47911 C 796.24087,281.05734 795.72857,283.21785 792.22749,285.84366 C 786.79844,289.91545 781.08947,292.13987 774.16729,293.87041 C 769.65694,294.998 764.74846,296.57314 760.78936,298.55269 C 754.52139,301.68668 748.67027,304.60434 742.06027,307.24834 C 734.93458,310.09862 727.00213,313.40857 721.32448,317.95068 C 717.86843,320.71552 712.71255,323.15133 708.61545,323.97075 C 701.79489,325.33486 695.42529,325.59605 688.54856,327.31523 C 681.97637,328.95828 673.12397,328.65302 666.47498,328.65302 C 657.27617,328.65302 646.55676,330.22864 637.71244,331.9975 C 632.67795,333.0044 626.83561,332.6664 621.65893,332.6664 C 617.79218,332.6664 613.74197,332.86107 610.28769,331.9975 C 606.959,331.16533 603.41831,331.45073 600.25425,330.65971 C 596.51957,329.72604 592.4879,328.88535 588.88301,327.98413 C 583.55075,326.65106 578.19484,323.56155 573.49839,320.62627 C 569.31066,318.00893 565.69105,316.16341 562.12716,312.59951 C 558.78023,309.25258 555.52122,305.99357 552.09371,302.56607 C 548.91078,299.38314 546.54427,295.67883 543.39806,292.53262 C 540.62468,289.75924 538.46487,285.73208 536.0402,282.49918 C 532.93661,278.36106 531.58715,272.92418 529.35123,268.45235 C 527.40535,264.5606 527.72459,259.93909 526.67565,255.74332 C 525.84038,252.40224 526.00675,248.54921 526.00675,245.04098 C 526.00675,240.68749 526.22513,237.24637 528.01344,233.66974 C 529.85631,229.98401 532.98028,226.82432 535.3713,223.6363 C 537.80639,220.38951 538.36583,216.74505 540.72247,213.60286 C 543.27621,210.19788 538.27084,213.46848 544.73585,209.58948 z"
       id="path2409"
       name="publicCloud3"
       order="9" />
    <path
       style="fill:#ffeeaa;fill-rule:evenodd;stroke:#000000;stroke-width:1px;stroke-linecap:butt;stroke-linejoin:miter;stroke-opacity:1"
       id="path2411" />
    <path
       style="fill:#00ffff;fill-rule:evenodd;stroke:#000000;stroke-width:3;stroke-linecap:butt;stroke-linejoin:miter;stroke-opacity:1;stroke-miterlimit:4;stroke-dasharray:none"
       d="M 529.71912,50.418906 C 529.25616,48.854826 532.30256,43.245336 534.4014,39.047666 C 536.19916,35.452136 539.54862,32.126226 543.09705,30.352016 C 546.81578,28.492646 550.01045,27.185316 553.79939,25.669736 C 558.09059,23.953256 562.66429,24.122406 567.17732,22.994156 C 570.50985,22.161026 573.97461,21.796506 577.21076,20.987466 C 580.33789,20.205686 583.98554,20.318566 587.24421,20.318566 C 590.81165,20.318566 594.3791,20.318566 597.94655,20.318566 C 601.91424,20.318566 603.51189,22.773386 607.97999,21.656366 C 613.89354,20.177976 618.17251,15.392246 622.69571,11.622916 C 626.34179,8.584516 629.01843,7.366656 633.39805,6.271746 C 637.43412,5.262726 641.64966,5.212186 645.43819,4.265056 C 649.28632,3.303026 653.21692,4.933956 656.80942,4.933956 C 660.02811,4.933956 664.21321,6.963606 666.84287,8.278436 C 670.72317,10.218586 673.83036,12.738486 677.54521,14.967396 C 681.4343,17.300856 685.24192,18.481306 688.91645,20.318566 C 692.90426,22.312476 695.61979,25.015226 698.94989,28.345326 C 702.17898,31.574416 705.53919,35.126756 708.98334,37.709876 C 712.91475,40.658436 716.46615,41.785726 720.35457,43.729936 C 722.83834,44.971826 730.63102,42.209766 733.0636,41.723256 C 737.41469,40.853036 743.83637,41.406406 747.77932,42.392146 C 754.15806,43.986836 760.40888,46.365786 765.83952,49.081106 C 770.87638,51.599536 771.11572,57.626806 773.19738,61.790136 C 778.1429,71.681176 776.39107,86.45424 778.54855,97.24165 C 778.90914,99.04457 779.44042,100.8091 779.88635,102.59282 C 781.11291,107.49907 781.22414,112.26303 781.22414,117.30854 C 781.22414,121.88677 780.71184,124.04728 777.21076,126.67309 C 771.78171,130.74488 766.07274,132.9693 759.15056,134.69984 C 754.64021,135.82743 749.73173,137.40257 745.77263,139.38212 C 739.50466,142.51611 733.65354,145.43377 727.04354,148.07777 C 719.91785,150.92805 711.9854,154.238 706.30775,158.78011 C 702.8517,161.54495 697.69582,163.98076 693.59872,164.80018 C 686.77816,166.16429 680.40856,166.42548 673.53183,168.14466 C 666.95964,169.78771 658.10724,169.48245 651.45825,169.48245 C 642.25944,169.48245 631.54003,171.05807 622.69571,172.82693 C 617.66122,173.83383 611.81888,173.49583 606.6422,173.49583 C 602.77545,173.49583 598.72524,173.6905 595.27096,172.82693 C 591.94227,171.99476 588.40158,172.28016 585.23752,171.48914 C 581.50284,170.55547 577.47117,169.71478 573.86628,168.81356 C 568.53402,167.48049 563.17811,164.39098 558.48166,161.4557 C 554.29393,158.83836 550.67432,156.99284 547.11043,153.42894 C 543.7635,150.08201 540.50449,146.823 537.07698,143.3955 C 533.89405,140.21257 531.52754,136.50826 528.38133,133.36205 C 525.60795,130.58867 523.44815,126.56151 521.02347,123.32861 C 517.91989,119.19049 516.57043,113.75361 514.33451,109.28178 C 512.38863,105.39003 512.70787,100.76852 511.65893,96.57275 C 510.82366,93.23167 511.2084,78.075796 512.99672,74.499166 C 514.83959,70.813436 517.96356,67.653746 520.35458,64.465726 C 522.78967,61.218936 523.3491,57.574476 525.70574,54.432286 C 528.25948,51.027306 523.25412,54.297906 529.71912,50.418906 z"
       id="path2413"
       sodipodi:nodetypes="cssssssssssssssssssssssssssssssssssssssssssssssssc"
       name="publicCloud2"
       order="9" />
    <path
       style="fill:#00ffff;fill-rule:evenodd;stroke:#000000;stroke-width:3;stroke-linecap:butt;stroke-linejoin:miter;stroke-opacity:1;stroke-miterlimit:4;stroke-dasharray:none"
       d="M 24.087016,352.69984 C 23.624056,351.13576 26.670456,345.52627 28.769296,341.3286 C 30.567056,337.73307 33.916516,334.40716 37.464946,332.63295 C 41.183676,330.77358 44.378346,329.46625 48.167286,327.95067 C 52.458486,326.23419 57.032186,326.40334 61.545216,325.27509 C 64.877746,324.44196 68.342506,324.07744 71.578656,323.2684 C 74.705786,322.48662 78.353436,322.5995 81.612106,322.5995 C 85.179546,322.5995 88.746996,322.5995 92.314446,322.5995 C 96.282136,322.5995 97.879786,325.05432 102.34789,323.9373 C 108.26144,322.45891 112.54041,317.67318 117.06361,313.90385 C 120.70969,310.86545 123.38633,309.64759 127.76595,308.55268 C 131.80202,307.54366 136.01756,307.49312 139.80609,306.54599 C 143.65422,305.58396 147.58482,307.21489 151.17732,307.21489 C 154.39601,307.21489 158.58111,309.24454 161.21077,310.55937 C 165.09107,312.49952 168.19826,315.01942 171.91311,317.24833 C 175.8022,319.58179 179.60982,320.76224 183.28435,322.5995 C 187.27216,324.59341 189.98769,327.29616 193.31779,330.62626 C 196.54688,333.85535 199.90709,337.40769 203.35124,339.99081 C 207.28265,342.93937 210.83405,344.06666 214.72247,346.01087 C 217.20624,347.25276 224.99892,344.4907 227.4315,344.00419 C 231.78259,343.13397 238.20427,343.68734 242.14722,344.67308 C 248.52596,346.26777 254.77678,348.64672 260.20742,351.36204 C 265.24428,353.88047 265.48362,359.90774 267.56528,364.07107 C 272.5108,373.96211 270.75897,388.73517 272.91645,399.52258 C 273.27704,401.3255 273.80832,403.09003 274.25425,404.87375 C 275.48081,409.78 275.59204,414.54396 275.59204,419.58947 C 275.59204,424.1677 275.07974,426.32821 271.57866,428.95402 C 266.14961,433.02581 260.44064,435.25023 253.51846,436.98077 C 249.00811,438.10836 244.09963,439.6835 240.14053,441.66305 C 233.87256,444.79704 228.02144,447.7147 221.41144,450.3587 C 214.28575,453.20898 206.3533,456.51893 200.67565,461.06104 C 197.2196,463.82588 192.06372,466.26169 187.96662,467.08111 C 181.14606,468.44522 174.77646,468.70641 167.89973,470.42559 C 161.32754,472.06864 152.47514,471.76338 145.82615,471.76338 C 136.62734,471.76338 125.90793,473.339 117.06361,475.10786 C 112.02912,476.11476 106.18678,475.77676 101.0101,475.77676 C 97.143346,475.77676 93.093136,475.97143 89.638856,475.10786 C 86.310166,474.27569 82.769476,474.56109 79.605416,473.77007 C 75.870736,472.8364 71.839066,471.99571 68.234176,471.09449 C 62.901916,469.76142 57.546006,466.67191 52.849556,463.73663 C 48.661826,461.11929 45.042216,459.27377 41.478326,455.70987 C 38.131396,452.36294 34.872386,449.10393 31.444876,445.67643 C 28.261946,442.4935 25.895436,438.78919 22.749226,435.64298 C 19.975846,432.8696 17.816041,428.84244 15.391366,425.60954 C 12.287781,421.47142 10.938318,416.03454 8.7024027,411.56271 C 6.7565247,407.67096 7.0757577,403.04945 6.0268177,398.85368 C 5.1915477,395.5126 5.3579207,391.65957 5.3579207,388.15134 C 5.3579207,383.79785 5.5762957,380.35673 7.3646097,376.7801 C 9.2074787,373.09437 12.331452,369.93468 14.72247,366.74666 C 17.157563,363.49987 17.716997,359.85541 20.073636,356.71322 C 22.627376,353.30824 17.622009,356.57884 24.087016,352.69984 z"
       id="path2415"
       name="publicCloud6"
       order="9" />
    <path
       style="fill:#00ffff;fill-rule:evenodd;stroke:#000000;stroke-width:3;stroke-linecap:butt;stroke-linejoin:miter;stroke-opacity:1;stroke-miterlimit:4;stroke-dasharray:none"
       d="M 544.48836,349.35536 C 544.0254,347.79128 547.0718,342.18179 549.17064,337.98412 C 550.9684,334.38859 554.31786,331.06268 557.86629,329.28847 C 561.58502,327.4291 564.77969,326.12177 568.56863,324.60619 C 572.85983,322.88971 577.43353,323.05886 581.94656,321.93061 C 585.27909,321.09748 588.74385,320.73296 591.98,319.92392 C 595.10713,319.14214 598.75478,319.25502 602.01345,319.25502 C 605.58089,319.25502 609.14834,319.25502 612.71579,319.25502 C 616.68348,319.25502 618.28113,321.70984 622.74923,320.59282 C 628.66278,319.11443 632.94175,314.3287 637.46495,310.55937 C 641.11103,307.52097 643.78767,306.30311 648.16729,305.2082 C 652.20336,304.19918 656.4189,304.14864 660.20743,303.20151 C 664.05556,302.23948 667.98616,303.87041 671.57866,303.87041 C 674.79735,303.87041 678.98245,305.90006 681.61211,307.21489 C 685.49241,309.15504 688.5996,311.67494 692.31445,313.90385 C 696.20354,316.23731 700.01116,317.41776 703.68569,319.25502 C 707.6735,321.24893 710.38903,323.95168 713.71913,327.28178 C 716.94822,330.51087 720.30843,334.06321 723.75258,336.64633 C 727.68399,339.59489 731.23539,340.72218 735.12381,342.66639 C 737.60758,343.90828 745.40026,341.14622 747.83284,340.65971 C 752.18393,339.78949 758.60561,340.34286 762.54856,341.3286 C 768.9273,342.92329 775.17812,345.30224 780.60876,348.01756 C 785.64562,350.53599 785.88496,356.56326 787.96662,360.72659 C 792.91214,370.61763 791.16031,385.39069 793.31779,396.1781 C 793.67838,397.98102 794.20966,399.74555 794.65559,401.52927 C 795.88215,406.43552 795.99338,411.19948 795.99338,416.24499 C 795.99338,420.82322 795.48108,422.98373 791.98,425.60954 C 786.55095,429.68133 780.84198,431.90575 773.9198,433.63629 C 769.40945,434.76388 764.50097,436.33902 760.54187,438.31857 C 754.2739,441.45256 748.42278,444.37022 741.81278,447.01422 C 734.68709,449.8645 726.75464,453.17445 721.07699,457.71656 C 717.62094,460.4814 712.46506,462.91721 708.36796,463.73663 C 701.5474,465.10074 695.1778,465.36193 688.30107,467.08111 C 681.72888,468.72416 672.87648,468.4189 666.22749,468.4189 C 657.02868,468.4189 646.30927,469.99452 637.46495,471.76338 C 632.43046,472.77028 626.58812,472.43228 621.41144,472.43228 C 617.54469,472.43228 613.49448,472.62695 610.0402,471.76338 C 606.71151,470.93121 603.17082,471.21661 600.00676,470.42559 C 596.27208,469.49192 592.24041,468.65123 588.63552,467.75001 C 583.30326,466.41694 577.94735,463.32743 573.2509,460.39215 C 569.06317,457.77481 565.44356,455.92929 561.87967,452.36539 C 558.53274,449.01846 555.27373,445.75945 551.84622,442.33195 C 548.66329,439.14902 546.29678,435.44471 543.15057,432.2985 C 540.37719,429.52512 538.21738,425.49796 535.79271,422.26506 C 532.68912,418.12694 531.33966,412.69006 529.10374,408.21823 C 527.15787,404.32648 527.4771,399.70497 526.42816,395.5092 C 525.59289,392.16812 525.75926,388.31509 525.75926,384.80686 C 525.75926,380.45337 525.97764,377.01225 527.76595,373.43562 C 529.60882,369.74989 532.73279,366.5902 535.12381,363.40218 C 537.5589,360.15539 538.11834,356.51093 540.47498,353.36874 C 543.02872,349.96376 538.02335,353.23436 544.48836,349.35536 z"
       id="path2417"
       name="publicCloud8"
       order="9" />
    <path
       style="fill:#00ffff;fill-rule:evenodd;stroke:#000000;stroke-width:3;stroke-linecap:butt;stroke-linejoin:miter;stroke-opacity:1;stroke-miterlimit:4;stroke-dasharray:none"
       d="M 285.62547,243.00084 C 285.16251,241.43676 288.20891,235.82727 290.30775,231.6296 C 292.10551,228.03407 295.45497,224.70816 299.0034,222.93395 C 302.72213,221.07458 305.9168,219.76725 309.70574,218.25167 C 313.99694,216.53519 318.57064,216.70434 323.08367,215.57609 C 326.4162,214.74296 329.88096,214.37844 333.11711,213.5694 C 336.24424,212.78762 339.89189,212.9005 343.15056,212.9005 C 346.718,212.9005 350.28545,212.9005 353.8529,212.9005 C 357.82059,212.9005 359.41824,215.35532 363.88634,214.2383 C 369.79989,212.75991 374.07886,207.97418 378.60206,204.20485 C 382.24814,201.16645 384.92478,199.94859 389.3044,198.85368 C 393.34047,197.84466 397.55601,197.79412 401.34454,196.84699 C 405.19267,195.88496 409.12327,197.51589 412.71577,197.51589 C 415.93446,197.51589 420.11956,199.54554 422.74922,200.86037 C 426.62952,202.80052 429.73671,205.32042 433.45156,207.54933 C 437.34065,209.88279 441.14827,211.06324 444.8228,212.9005 C 448.81061,214.89441 451.52614,217.59716 454.85624,220.92726 C 458.08533,224.15635 461.44554,227.70869 464.88969,230.29181 C 468.8211,233.24037 472.3725,234.36766 476.26092,236.31187 C 478.74469,237.55376 486.53737,234.7917 488.96995,234.30519 C 493.32104,233.43497 499.74272,233.98834 503.68567,234.97408 C 510.06441,236.56877 516.31523,238.94772 521.74587,241.66304 C 526.78273,244.18147 527.02207,250.20874 529.10373,254.37207 C 534.04925,264.26311 532.29742,279.03617 534.4549,289.82358 C 534.81549,291.6265 535.34677,293.39103 535.7927,295.17475 C 537.01926,300.081 537.13049,304.84496 537.13049,309.89047 C 537.13049,314.4687 536.61819,316.62921 533.11711,319.25502 C 527.68806,323.32681 521.97909,325.55123 515.05691,327.28177 C 510.54656,328.40936 505.63808,329.9845 501.67898,331.96405 C 495.41101,335.09804 489.55989,338.0157 482.94989,340.6597 C 475.8242,343.50998 467.89175,346.81993 462.2141,351.36204 C 458.75805,354.12688 453.60217,356.56269 449.50507,357.38211 C 442.68451,358.74622 436.31491,359.00741 429.43818,360.72659 C 422.86599,362.36964 414.01359,362.06438 407.3646,362.06438 C 398.16579,362.06438 387.44638,363.64 378.60206,365.40886 C 373.56757,366.41576 367.72523,366.07776 362.54855,366.07776 C 358.6818,366.07776 354.63159,366.27243 351.17731,365.40886 C 347.84862,364.57669 344.30793,364.86209 341.14387,364.07107 C 337.40919,363.1374 333.37752,362.29671 329.77263,361.39549 C 324.44037,360.06242 319.08446,356.97291 314.38801,354.03763 C 310.20028,351.42029 306.58067,349.57477 303.01678,346.01087 C 299.66985,342.66394 296.41084,339.40493 292.98333,335.97743 C 289.8004,332.7945 287.43389,329.09019 284.28768,325.94398 C 281.5143,323.1706 279.3545,319.14344 276.92982,315.91054 C 273.82624,311.77242 272.47678,306.33554 270.24086,301.86371 C 268.29498,297.97196 268.61422,293.35045 267.56528,289.15468 C 266.73001,285.8136 266.89638,281.96057 266.89638,278.45234 C 266.89638,274.09885 267.11475,270.65773 268.90307,267.0811 C 270.74594,263.39537 273.86991,260.23568 276.26093,257.04766 C 278.69602,253.80087 279.25545,250.15641 281.61209,247.01422 C 284.16583,243.60924 279.16047,246.87984 285.62547,243.00084 z"
       id="path2419"
       name="publicCloud4"
       order="9" />
    <path
       style="fill:#00ffff;fill-rule:evenodd;stroke:#000000;stroke-width:3;stroke-linecap:butt;stroke-linejoin:miter;stroke-opacity:1;stroke-miterlimit:4;stroke-dasharray:none"
       d="M 266.95658,96.345328 C 266.49362,94.781248 269.54002,89.171758 271.63886,84.974088 C 273.43662,81.378558 276.78608,78.052648 280.33451,76.278438 C 284.05324,74.419068 287.24791,73.111738 291.03685,71.596158 C 295.32805,69.879678 299.90175,70.048828 304.41478,68.920578 C 307.74731,68.087448 311.21207,67.722928 314.44822,66.913888 C 317.57535,66.132108 321.223,66.244988 324.48167,66.244988 C 328.04911,66.244988 331.61656,66.244988 335.18401,66.244988 C 339.1517,66.244988 341.41825,60.004156 345.88635,58.887136 C 351.7999,57.408746 355.40997,61.318668 359.93317,57.549338 C 363.57925,54.510938 366.25589,53.293078 370.63551,52.198168 C 374.67158,51.189148 378.88712,51.138608 382.67565,50.191478 C 386.52378,49.229448 390.45438,50.860378 394.04688,50.860378 C 397.26557,50.860378 401.45067,52.890028 404.08033,54.204858 C 407.96063,56.145008 411.06782,58.664908 414.78267,60.893818 C 418.67176,63.227278 422.47938,64.407728 426.15391,66.244988 C 430.14172,68.238898 432.85725,70.941648 436.18735,74.271748 C 439.41644,77.500838 442.77665,81.053178 446.2208,83.636298 C 450.15221,86.584858 453.70361,87.712148 457.59203,89.656358 C 460.0758,90.898248 467.86848,88.136188 470.30106,87.649678 C 474.65215,86.779458 481.07383,87.332828 485.01678,88.318568 C 491.39552,89.913258 497.64634,92.292208 503.07698,95.007528 C 508.11384,97.525958 508.35318,103.55323 510.43484,107.71656 C 515.38036,117.6076 513.62853,132.38066 515.78601,143.16807 C 516.1466,144.97099 516.67788,146.73552 517.12381,148.51924 C 518.35037,153.42549 518.4616,158.18945 518.4616,163.23496 C 518.4616,167.81319 517.9493,169.9737 514.44822,172.59951 C 509.01917,176.6713 503.3102,178.89572 496.38802,180.62626 C 491.87767,181.75385 486.96919,183.32899 483.01009,185.30854 C 476.74212,188.44253 470.891,191.36019 464.281,194.00419 C 457.15531,196.85447 449.22286,200.16442 443.54521,204.70653 C 440.08916,207.47137 434.93328,209.90718 430.83618,210.7266 C 424.01562,212.09071 417.64602,212.3519 410.76929,214.07108 C 404.1971,215.71413 395.3447,215.40887 388.69571,215.40887 C 379.4969,215.40887 368.77749,216.98449 359.93317,218.75335 C 354.89868,219.76025 349.05634,219.42225 343.87966,219.42225 C 340.01291,219.42225 335.9627,219.61692 332.50842,218.75335 C 329.17973,217.92118 325.63904,218.20658 322.47498,217.41556 C 318.7403,216.48189 314.70863,215.6412 311.10374,214.73998 C 305.77148,213.40691 300.41557,210.3174 295.71912,207.38212 C 291.53139,204.76478 287.91178,202.91926 284.34789,199.35536 C 281.00096,196.00843 277.74195,192.74942 274.31444,189.32192 C 271.13151,186.13899 268.765,182.43468 265.61879,179.28847 C 262.84541,176.51509 260.68561,172.48793 258.26093,169.25503 C 255.15735,165.11691 253.80788,159.68003 251.57197,155.2082 C 249.62609,151.31645 249.94532,146.69494 248.89638,142.49917 C 248.06111,139.15809 248.22749,135.30506 248.22749,131.79683 C 248.22749,127.44334 248.44586,124.00222 250.23418,120.42559 C 252.07704,116.73986 255.20102,113.58017 257.59204,110.39215 C 260.02713,107.14536 260.58656,103.5009 262.9432,100.35871 C 265.49694,96.953728 260.49157,100.22433 266.95658,96.345328 z"
       id="path2421"
       sodipodi:nodetypes="csssssssssssssssssssssssssssssssssssssssssssssssssc"
       name="publicCloud1"
       order="9" />
    <path
       style="fill:#00ffff;fill-rule:evenodd;stroke:#000000;stroke-width:3;stroke-linecap:butt;stroke-linejoin:miter;stroke-opacity:1;stroke-miterlimit:4;stroke-dasharray:none"
       d="M 292.98333,352.69985 C 292.52037,351.13577 295.56677,345.52628 297.66561,341.32861 C 299.46337,337.73308 302.81283,334.40717 306.36126,332.63296 C 310.07999,330.77359 313.27466,329.46626 317.0636,327.95068 C 321.3548,326.2342 325.9285,326.40335 330.44153,325.2751 C 333.77406,324.44197 337.23882,324.07745 340.47497,323.26841 C 343.6021,322.48663 347.24975,322.59951 350.50842,322.59951 C 354.07586,322.59951 357.64331,322.59951 361.21076,322.59951 C 365.17845,322.59951 366.7761,325.05433 371.2442,323.93731 C 377.15775,322.45892 381.43672,317.67319 385.95992,313.90386 C 389.606,310.86546 392.28264,309.6476 396.66226,308.55269 C 400.69833,307.54367 404.91387,307.49313 408.7024,306.546 C 412.55053,305.58397 416.48113,307.2149 420.07363,307.2149 C 423.29232,307.2149 427.47742,309.24455 430.10708,310.55938 C 433.98738,312.49953 437.09457,315.01943 440.80942,317.24834 C 444.69851,319.5818 448.50613,320.76225 452.18066,322.59951 C 456.16847,324.59342 458.884,327.29617 462.2141,330.62627 C 465.44319,333.85536 468.8034,337.4077 472.24755,339.99082 C 476.17896,342.93938 479.73036,344.06667 483.61878,346.01088 C 486.10255,347.25277 493.89523,344.49071 496.32781,344.0042 C 500.6789,343.13398 507.10058,343.68735 511.04353,344.67309 C 517.42227,346.26778 523.67309,348.64673 529.10373,351.36205 C 534.14059,353.88048 534.37993,359.90775 536.46159,364.07108 C 541.40711,373.96212 539.65528,388.73518 541.81276,399.52259 C 542.17335,401.32551 542.70463,403.09004 543.15056,404.87376 C 544.37712,409.78001 544.48835,414.54397 544.48835,419.58948 C 544.48835,424.16771 543.97605,426.32822 540.47497,428.95403 C 535.04592,433.02582 529.33695,435.25024 522.41477,436.98078 C 517.90442,438.10837 512.99594,439.68351 509.03684,441.66306 C 502.76887,444.79705 496.91775,447.71471 490.30775,450.35871 C 483.18206,453.20899 475.24961,456.51894 469.57196,461.06105 C 466.11591,463.82589 460.96003,466.2617 456.86293,467.08112 C 450.04237,468.44523 443.67277,468.70642 436.79604,470.4256 C 430.22385,472.06865 421.37145,471.76339 414.72246,471.76339 C 405.52365,471.76339 394.80424,473.33901 385.95992,475.10787 C 380.92543,476.11477 375.08309,475.77677 369.90641,475.77677 C 366.03966,475.77677 361.98945,475.97144 358.53517,475.10787 C 355.20648,474.2757 351.66579,474.5611 348.50173,473.77008 C 344.76705,472.83641 340.73538,471.99572 337.13049,471.0945 C 331.79823,469.76143 326.44232,466.67192 321.74587,463.73664 C 317.55814,461.1193 313.93853,459.27378 310.37464,455.70988 C 307.02771,452.36295 303.7687,449.10394 300.34119,445.67644 C 297.15826,442.49351 294.79175,438.7892 291.64554,435.64299 C 288.87216,432.86961 286.71236,428.84245 284.28768,425.60955 C 281.1841,421.47143 279.83464,416.03455 277.59872,411.56272 C 275.65284,407.67097 275.97208,403.04946 274.92314,398.85369 C 274.08787,395.51261 274.25424,391.65958 274.25424,388.15135 C 274.25424,383.79786 274.47261,380.35674 276.26093,376.78011 C 278.1038,373.09438 281.22777,369.93469 283.61879,366.74667 C 286.05388,363.49988 286.61331,359.85542 288.96995,356.71323 C 291.52369,353.30825 286.51833,356.57885 292.98333,352.69985 z"
       id="path2423"
       name="publicCloud7"
       order="9" />
    <path
       style="fill:#00ffff;fill-rule:evenodd;stroke:#000000;stroke-width:3;stroke-linecap:butt;stroke-linejoin:miter;stroke-opacity:1;stroke-miterlimit:4;stroke-dasharray:none"
       d="M 24.087014,50.358705 C 23.624054,48.794625 26.670454,43.185135 28.769294,38.987465 C 30.567054,35.391935 33.916514,32.066025 37.464944,30.291815 C 41.183674,28.432445 44.378344,27.125115 48.167284,25.609535 C 52.458484,23.893055 57.032184,24.062205 61.545214,22.933955 C 64.877744,22.100825 68.342504,21.736305 71.578654,20.927265 C 74.705784,20.145485 78.353434,20.258365 81.612104,20.258365 C 85.179544,20.258365 88.746994,20.258365 92.314444,20.258365 C 96.282134,20.258365 97.879784,22.713185 102.34788,21.596165 C 108.26143,20.117775 112.5404,15.332045 117.0636,11.562715 C 120.70968,8.5243148 123.38632,7.3064548 127.76594,6.2115448 C 131.80201,5.2025248 136.01755,5.1519848 139.80608,4.2048548 C 143.65421,3.2428248 147.58481,4.8737548 151.17731,4.8737548 C 154.396,4.8737548 158.5811,6.9034048 161.21076,8.2182348 C 165.09106,10.158385 168.19825,12.678285 171.9131,14.907195 C 175.80219,17.240655 179.60981,18.421105 183.28434,20.258365 C 187.27215,22.252275 189.98768,24.955025 193.31778,28.285125 C 196.54687,31.514215 199.90708,35.066555 203.35123,37.649675 C 207.28264,40.598235 210.83404,41.725525 214.72246,43.669735 C 217.20623,44.911625 224.99891,42.149565 227.43149,41.663055 C 231.78258,40.792835 238.20426,41.346205 242.14721,42.331945 C 248.52595,43.926635 254.77677,46.305585 260.20741,49.020905 C 265.24427,51.539335 265.48361,57.566607 267.56527,61.729937 C 272.51079,71.620977 270.75896,86.394037 272.91644,97.181447 C 273.27703,98.984367 273.80831,100.7489 274.25424,102.53262 C 275.4808,107.43887 275.59203,112.20283 275.59203,117.24834 C 275.59203,121.82657 275.07973,123.98708 271.57865,126.61289 C 266.1496,130.68468 260.44063,132.9091 253.51845,134.63964 C 249.0081,135.76723 244.09962,137.34237 240.14052,139.32192 C 233.87255,142.45591 225.5163,142.20097 221.41143,148.01757 C 215.62353,156.21902 206.35329,154.1778 200.67564,158.71991 C 197.21959,161.48475 192.06371,163.92056 187.96661,164.73998 C 181.14605,166.10409 174.77645,166.36528 167.89972,168.08446 C 161.32753,169.72751 152.47513,169.42225 145.82614,169.42225 C 136.62733,169.42225 125.90792,170.99787 117.0636,172.76673 C 112.02911,173.77363 106.18677,173.43563 101.01009,173.43563 C 97.143344,173.43563 93.093134,173.6303 89.638854,172.76673 C 86.310164,171.93456 82.769474,172.21996 79.605414,171.42894 C 75.870734,170.49527 71.839064,169.65458 68.234174,168.75336 C 62.901914,167.42029 57.546004,164.33078 52.849554,161.3955 C 48.661824,158.77816 25.895434,136.44806 22.749224,133.30185 C 19.975844,130.52847 17.816044,126.50131 15.391364,123.26841 C 12.287784,119.13029 10.938314,113.69341 8.7024044,109.22158 C 6.7565244,105.32983 7.0757544,100.70832 6.0268144,96.512547 C 5.1915444,93.171467 5.3579244,89.318437 5.3579244,85.810207 C 5.3579244,81.456717 5.5762944,78.015597 7.3646144,74.438967 C 9.2074744,70.753237 12.331454,67.593547 14.722474,64.405527 C 17.157564,61.158737 17.716994,57.514277 20.073634,54.372087 C 22.627374,50.967105 17.622004,54.237707 24.087014,50.358705 z"
       id="path2427"
       sodipodi:nodetypes="csssssssssssssssssssssssssssssssssssssssssssssssc"
       name="publicCloud0"
       order="9" />
    <text
       xml:space="preserve"
       style="font-size:16px;font-style:normal;font-weight:bold;fill:#000000;fill-opacity:1;stroke:none;stroke-width:3;stroke-linecap:butt;stroke-linejoin:miter;stroke-opacity:1;font-family:Bitstream Vera Sans;-inkscape-font-specification:Bitstream Vera Sans Bold;font-stretch:normal;font-variant:normal;text-anchor:start;text-align:start;writing-mode:lr;line-height:125%;stroke-miterlimit:4;stroke-dasharray:none"
       x="38.12709"
       y="50.568562"
       id="text2429"
       name="publicTwt0"
       order="10"
       sodipodi:linespacing="125%"><tspan
         sodipodi:role="line"
         id="tspan2431"
         x="38.12709"
         y="50.568562">text</tspan></text>
    <text
       xml:space="preserve"
       style="font-size:16px;font-style:normal;font-weight:bold;fill:#000000;fill-opacity:1;stroke:none;stroke-width:3;stroke-linecap:butt;stroke-linejoin:miter;stroke-opacity:1;font-family:Bitstream Vera Sans;-inkscape-font-specification:Bitstream Vera Sans Bold;font-stretch:normal;font-variant:normal;text-anchor:start;text-align:start;writing-mode:lr;line-height:125%;stroke-miterlimit:4;stroke-dasharray:none"
       x="278.43869"
       y="110.21489"
       id="text2433"
       name="publicTwt1"
       order="10"
       sodipodi:linespacing="125%"><tspan
         sodipodi:role="line"
         id="tspan2435"
         x="278.43869"
         y="110.21489">text</tspan></text>
    <text
       xml:space="preserve"
       style="font-size:16px;font-style:normal;font-variant:normal;font-weight:bold;font-stretch:normal;text-align:start;line-height:125%;writing-mode:lr-tb;text-anchor:start;fill:#000000;fill-opacity:1;stroke:none;stroke-width:3;stroke-linecap:butt;stroke-linejoin:miter;stroke-opacity:1;font-family:Bitstream Vera Sans;-inkscape-font-specification:Bitstream Vera Sans Bold;stroke-miterlimit:4;stroke-dasharray:none"
       x="542.0307"
       y="54.027596"
       id="text2437"
       name="publicTwt2"
       order="10"
       sodipodi:linespacing="125%"><tspan
         sodipodi:role="line"
         id="tspan2439"
         x="542.0307"
         y="54.027596">text</tspan></text>
    <text
       xml:space="preserve"
       style="font-size:16px;font-style:normal;font-weight:bold;fill:#000000;fill-opacity:1;stroke:none;stroke-width:3;stroke-linecap:butt;stroke-linejoin:miter;stroke-opacity:1;font-family:Bitstream Vera Sans;-inkscape-font-specification:Bitstream Vera Sans Bold;font-stretch:normal;font-variant:normal;text-anchor:start;text-align:start;writing-mode:lr;line-height:125%;stroke-miterlimit:4;stroke-dasharray:none"
       x="552.01727"
       y="218.5761"
       id="text2441"
       name="publicTwt3"
       order="10"
       sodipodi:linespacing="125%"><tspan
         sodipodi:role="line"
         id="tspan2443"
         x="552.01727"
         y="218.5761">text</tspan></text>
    <text
       xml:space="preserve"
       style="font-size:16px;font-style:normal;font-weight:bold;fill:#000000;fill-opacity:1;stroke:none;stroke-width:3;stroke-linecap:butt;stroke-linejoin:miter;stroke-opacity:1;font-family:Bitstream Vera Sans;-inkscape-font-specification:Bitstream Vera Sans Bold;font-stretch:normal;font-variant:normal;text-anchor:start;text-align:start;writing-mode:lr;line-height:125%;stroke-miterlimit:4;stroke-dasharray:none"
       x="294.49222"
       y="247.33864"
       id="text2445"
       name="publicTwt4"
       order="10"
       sodipodi:linespacing="125%"><tspan
         sodipodi:role="line"
         id="tspan2447"
         x="294.49222"
         y="247.33864">text</tspan></text>
    <text
       xml:space="preserve"
       style="font-size:16px;font-style:normal;font-weight:bold;fill:#000000;fill-opacity:1;stroke:none;stroke-width:3;stroke-linecap:butt;stroke-linejoin:miter;stroke-opacity:1;font-family:Bitstream Vera Sans;-inkscape-font-specification:Bitstream Vera Sans Bold;font-stretch:normal;font-variant:normal;text-anchor:start;text-align:start;writing-mode:lr;line-height:125%;stroke-miterlimit:4;stroke-dasharray:none"
       x="31.615955"
       y="211.88713"
       id="text2449"
       name="publicTwt5"
       order="10"
       sodipodi:linespacing="125%"><tspan
         sodipodi:role="line"
         id="tspan2451"
         x="31.615955"
         y="211.88713">text</tspan></text>
    <text
       xml:space="preserve"
       style="font-size:16px;font-style:normal;font-weight:bold;fill:#000000;fill-opacity:1;stroke:none;stroke-width:3;stroke-linecap:butt;stroke-linejoin:miter;stroke-opacity:1;font-family:Bitstream Vera Sans;-inkscape-font-specification:Bitstream Vera Sans Bold;font-stretch:normal;font-variant:normal;text-anchor:start;text-align:start;writing-mode:lr;line-height:125%;stroke-miterlimit:4;stroke-dasharray:none"
       x="30.278164"
       y="361.05099"
       id="text2453"
       name="publicTwt6"
       order="10"
       sodipodi:linespacing="125%"><tspan
         sodipodi:role="line"
         id="tspan2455"
         x="30.278164"
         y="361.05099">text</tspan></text>
    <text
       xml:space="preserve"
       style="font-size:16px;font-style:normal;font-weight:bold;fill:#000000;fill-opacity:1;stroke:none;stroke-width:3;stroke-linecap:butt;stroke-linejoin:miter;stroke-opacity:1;font-family:Bitstream Vera Sans;-inkscape-font-specification:Bitstream Vera Sans Bold;font-stretch:normal;font-variant:normal;text-anchor:start;text-align:start;writing-mode:lr;line-height:125%;stroke-miterlimit:4;stroke-dasharray:none"
       x="299.84338"
       y="362.38879"
       id="text2457"
       name="publicTwt7"
       order="10"
       sodipodi:linespacing="125%"><tspan
         sodipodi:role="line"
         id="tspan2459"
         x="299.84338"
         y="362.38879">text</tspan></text>
    <text
       xml:space="preserve"
       style="font-size:16px;font-style:normal;font-weight:bold;fill:#000000;fill-opacity:1;stroke:none;stroke-width:3;stroke-linecap:butt;stroke-linejoin:miter;stroke-opacity:1;font-family:Bitstream Vera Sans;-inkscape-font-specification:Bitstream Vera Sans Bold;font-stretch:normal;font-variant:normal;text-anchor:start;text-align:start;writing-mode:lr;line-height:125%;stroke-miterlimit:4;stroke-dasharray:none"
       x="553.3551"
       y="354.36203"
       id="text2461"
       name="publicTwt8"
       order="10"
       sodipodi:linespacing="125%"><tspan
         sodipodi:role="line"
         id="tspan2463"
         x="553.3551"
         y="354.36203">text</tspan></text>
    <g
       id="g2496"
       name="twitButton"
       order="100">
      <rect
         ry="8"
         rx="8"
         y="9.0969896"
         x="688.29431"
         height="30.100334"
         width="105.68562"
         id="rect2490"
         style="opacity:1;fill:#000000;fill-opacity:1;fill-rule:evenodd;stroke:none;stroke-width:4.30000019;stroke-linecap:round;stroke-linejoin:round;stroke-miterlimit:4;stroke-dasharray:none;stroke-opacity:1" />
      <text
         id="text2492"
         y="28.488295"
         x="723.08362"
         style="font-size:18px;font-style:normal;font-weight:bold;fill:#ffffff;fill-opacity:1;stroke:none;stroke-width:1px;stroke-linecap:butt;stroke-linejoin:miter;stroke-opacity:1;font-family:Bitstream Vera Sans;-inkscape-font-specification:Bitstream Vera Sans Bold"
         xml:space="preserve"><tspan
           y="28.488295"
           x="723.08362"
           id="tspan2494"
           sodipodi:role="line">twit</tspan></text>
    </g>
    <g
       id="g2501"
       transform="translate(-2.6755881,431.10368)"
       name="quitButton"
       order="100">
      <rect
         ry="8"
         rx="8"
         y="9.0969896"
         x="688.29431"
         height="30.100334"
         width="105.68562"
         id="rect2503"
         style="opacity:1;fill:#000000;fill-opacity:1;fill-rule:evenodd;stroke:none;stroke-width:4.30000019;stroke-linecap:round;stroke-linejoin:round;stroke-miterlimit:4;stroke-dasharray:none;stroke-opacity:1" />
      <text
         id="text2505"
         y="28.488295"
         x="723.08362"
         style="font-size:18px;font-style:normal;font-weight:bold;fill:#ffffff;fill-opacity:1;stroke:none;stroke-width:1px;stroke-linecap:butt;stroke-linejoin:miter;stroke-opacity:1;font-family:Bitstream Vera Sans;-inkscape-font-specification:Bitstream Vera Sans Bold"
         xml:space="preserve"><tspan
           y="28.488295"
           x="723.08362"
           id="tspan2507"
           sodipodi:role="line">quit</tspan></text>
    </g>
  </g>
</svg>
