<?xml version="1.0" encoding="UTF-8" standalone="no"?>
<!-- Created with Inkscape (http://www.inkscape.org/) -->
<svg
   xmlns:dc="http://purl.org/dc/elements/1.1/"
   xmlns:cc="http://creativecommons.org/ns#"
   xmlns:rdf="http://www.w3.org/1999/02/22-rdf-syntax-ns#"
   xmlns:svg="http://www.w3.org/2000/svg"
   xmlns="http://www.w3.org/2000/svg"
   xmlns:sodipodi="http://sodipodi.sourceforge.net/DTD/sodipodi-0.dtd"
   xmlns:inkscape="http://www.inkscape.org/namespaces/inkscape"
   width="800"
   height="480"
   id="svg2"
   sodipodi:version="0.32"
   inkscape:version="0.46"
   version="1.0"
   sodipodi:docname="public.svg"
   inkscape:output_extension="org.inkscape.output.svg.inkscape">
  <defs
     id="defs4">
    <linearGradient
       id="linearGradient5533">
      <stop
         style="stop-color:#00ff00;stop-opacity:0;"
         offset="0"
         id="stop5535" />
      <stop
         id="stop5541"
         offset="0.17021276"
         style="stop-color:#00ff00;stop-opacity:0.58536583;" />
      <stop
         style="stop-color:#00ff00;stop-opacity:1;"
         offset="1"
         id="stop5537" />
    </linearGradient>
    <inkscape:perspective
       sodipodi:type="inkscape:persp3d"
       inkscape:vp_x="0 : 526.18109 : 1"
       inkscape:vp_y="0 : 1000 : 0"
       inkscape:vp_z="744.09448 : 526.18109 : 1"
       inkscape:persp3d-origin="372.04724 : 350.78739 : 1"
       id="perspective10" />
  </defs>
  <sodipodi:namedview
     id="base"
     pagecolor="#ffffff"
     bordercolor="#666666"
     borderopacity="1.0"
     gridtolerance="10000"
     guidetolerance="10"
     objecttolerance="10"
     inkscape:pageopacity="0.0"
     inkscape:pageshadow="2"
     inkscape:zoom="1.15"
     inkscape:cx="400"
     inkscape:cy="240"
     inkscape:document-units="px"
     inkscape:current-layer="layer1"
     showgrid="false"
     inkscape:window-width="1280"
     inkscape:window-height="778"
     inkscape:window-x="-5"
     inkscape:window-y="-3" />
  <metadata
     id="metadata7">
    <rdf:RDF>
      <cc:Work
         rdf:about="">
        <dc:format>image/svg+xml</dc:format>
        <dc:type
           rdf:resource="http://purl.org/dc/dcmitype/StillImage" />
      </cc:Work>
    </rdf:RDF>
  </metadata>
  <g
     inkscape:label="Layer 1"
     inkscape:groupmode="layer"
     id="layer1">
    <rect
       style="opacity:1;fill:#ffffff;fill-opacity:1;fill-rule:evenodd;stroke:none;stroke-width:4.30000019;stroke-linecap:round;stroke-linejoin:round;stroke-miterlimit:4;stroke-dasharray:none;stroke-opacity:1"
       id="rect2465"
       width="800"
       height="480"
       x="0"
       y="-1.4210855e-14"
       name="background"
       order="0" />
    <path
       style="fill:#00ffff;fill-rule:evenodd;stroke:#000000;stroke-width:3;stroke-linecap:butt;stroke-linejoin:miter;stroke-miterlimit:4;stroke-dasharray:none;stroke-opacity:1;opacity:0.92244898"
       d="M 24.080265,206.42141 C 23.617305,204.85733 26.663705,199.24784 28.762545,195.05017 C 30.560305,191.45464 33.909765,188.12873 37.458195,186.35452 C 41.176925,184.49515 44.371595,183.18782 48.160535,181.67224 C 52.451735,179.95576 57.025435,180.12491 61.538465,178.99666 C 64.870995,178.16353 68.335755,177.79901 71.571905,176.98997 C 74.699035,176.20819 78.346685,176.32107 81.605355,176.32107 C 85.172795,176.32107 88.740245,176.32107 92.307695,176.32107 C 96.275385,176.32107 97.873035,178.77589 102.34114,177.65887 C 108.25469,176.18048 112.53366,171.39475 117.05686,167.62542 C 120.70294,164.58702 123.37958,163.36916 127.7592,162.27425 C 131.79527,161.26523 136.01081,161.21469 139.79934,160.26756 C 143.64747,159.30553 147.57807,160.93646 151.17057,160.93646 C 154.38926,160.93646 158.57436,162.96611 161.20402,164.28094 C 165.08432,166.22109 168.19151,168.74099 171.90636,170.9699 C 175.79545,173.30336 179.60307,174.48381 183.2776,176.32107 C 187.26541,178.31498 189.98094,181.01773 193.31104,184.34783 C 196.54013,187.57692 199.90034,191.12926 203.34449,193.71238 C 207.2759,196.66094 210.8273,197.78823 214.71572,199.73244 C 217.19949,200.97433 224.99217,198.21227 227.42475,197.72576 C 231.77584,196.85554 238.19752,197.40891 242.14047,198.39465 C 248.51921,199.98934 254.77003,202.36829 260.20067,205.08361 C 265.23753,207.60204 265.47687,213.62931 267.55853,217.79264 C 272.50405,227.68368 270.75222,242.45674 272.9097,253.24415 C 273.27029,255.04707 273.80157,256.8116 274.2475,258.59532 C 275.47406,263.50157 275.58529,268.26553 275.58529,273.31104 C 275.58529,277.88927 275.07299,280.04978 271.57191,282.67559 C 266.14286,286.74738 260.43389,288.9718 253.51171,290.70234 C 249.00136,291.82993 244.09288,293.40507 240.13378,295.38462 C 233.86581,298.51861 228.01469,301.43627 221.40469,304.08027 C 214.279,306.93055 206.34655,310.2405 200.6689,314.78261 C 197.21285,317.54745 192.05697,319.98326 187.95987,320.80268 C 181.13931,322.16679 174.76971,322.42798 167.89298,324.14716 C 161.32079,325.79021 152.46839,325.48495 145.8194,325.48495 C 136.62059,325.48495 125.90118,327.06057 117.05686,328.82943 C 112.02237,329.83633 106.18003,329.49833 101.00335,329.49833 C 97.136595,329.49833 93.086385,329.693 89.632105,328.82943 C 86.303415,327.99726 82.762725,328.28266 79.598665,327.49164 C 75.863985,326.55797 71.832315,325.71728 68.227425,324.81606 C 62.895165,323.48299 57.539255,320.39348 52.842805,317.4582 C 48.655075,314.84086 45.035465,312.99534 41.471575,309.43144 C 38.124645,306.08451 34.865635,302.8255 31.438125,299.398 C 28.255195,296.21507 25.888685,292.51076 22.742475,289.36455 C 19.969095,286.59117 17.80929,282.56401 15.384615,279.33111 C 12.28103,275.19299 10.931567,269.75611 8.6956522,265.28428 C 6.7497742,261.39253 7.0690072,256.77102 6.0200672,252.57525 C 5.1847972,249.23417 5.3511702,245.38114 5.3511702,241.87291 C 5.3511702,237.51942 5.5695452,234.0783 7.3578592,230.50167 C 9.2007282,226.81594 12.324701,223.65625 14.715719,220.46823 C 17.150812,217.22144 17.710246,213.57698 20.066885,210.43479 C 22.620625,207.02981 17.615258,210.30041 24.080265,206.42141 z"
       id="path2405"
       name="publicCloud5"
       order="15" />
    <path
       style="fill:#00ffff;fill-rule:evenodd;stroke:#000000;stroke-width:3;stroke-linecap:butt;stroke-linejoin:miter;stroke-miterlimit:4;stroke-dasharray:none;stroke-opacity:1;opacity:0.92244898"
       d="M 544.73585,209.58948 C 544.27289,208.0254 547.31929,202.41591 549.41813,198.21824 C 551.21589,194.62271 554.56535,191.2968 558.11378,189.52259 C 561.83251,187.66322 565.02718,186.35589 568.81612,184.84031 C 573.10732,183.12383 577.68102,183.29298 582.19405,182.16473 C 585.52658,181.3316 588.99134,180.96708 592.22749,180.15804 C 595.35462,179.37626 599.00227,179.48914 602.26094,179.48914 C 605.82838,179.48914 609.39583,179.48914 612.96328,179.48914 C 616.93097,179.48914 618.52862,181.94396 622.99672,180.82694 C 628.91027,179.34855 633.18924,174.56282 637.71244,170.79349 C 641.35852,167.75509 644.03516,166.53723 648.41478,165.44232 C 652.45085,164.4333 656.66639,164.38276 660.45492,163.43563 C 664.30305,162.4736 668.23365,164.10453 671.82615,164.10453 C 675.04484,164.10453 679.22994,166.13418 681.8596,167.44901 C 685.7399,169.38916 688.84709,171.90906 692.56194,174.13797 C 696.45103,176.47143 700.25865,177.65188 703.93318,179.48914 C 707.92099,181.48305 710.63652,184.1858 713.96662,187.5159 C 717.19571,190.74499 720.55592,194.29733 724.00007,196.88045 C 727.93148,199.82901 731.48288,200.9563 735.3713,202.90051 C 737.85507,204.1424 745.64775,201.38034 748.08033,200.89383 C 752.43142,200.02361 758.8531,200.57698 762.79605,201.56272 C 769.17479,203.15741 775.42561,205.53636 780.85625,208.25168 C 785.89311,210.77011 786.13245,216.79738 788.21411,220.96071 C 793.15963,230.85175 791.4078,245.62481 793.56528,256.41222 C 793.92587,258.21514 794.45715,259.97967 794.90308,261.76339 C 796.12964,266.66964 796.24087,271.4336 796.24087,276.47911 C 796.24087,281.05734 795.72857,283.21785 792.22749,285.84366 C 786.79844,289.91545 781.08947,292.13987 774.16729,293.87041 C 769.65694,294.998 764.74846,296.57314 760.78936,298.55269 C 754.52139,301.68668 748.67027,304.60434 742.06027,307.24834 C 734.93458,310.09862 727.00213,313.40857 721.32448,317.95068 C 717.86843,320.71552 712.71255,323.15133 708.61545,323.97075 C 701.79489,325.33486 695.42529,325.59605 688.54856,327.31523 C 681.97637,328.95828 673.12397,328.65302 666.47498,328.65302 C 657.27617,328.65302 646.55676,330.22864 637.71244,331.9975 C 632.67795,333.0044 626.83561,332.6664 621.65893,332.6664 C 617.79218,332.6664 613.74197,332.86107 610.28769,331.9975 C 606.959,331.16533 603.41831,331.45073 600.25425,330.65971 C 596.51957,329.72604 592.4879,328.88535 588.88301,327.98413 C 583.55075,326.65106 578.19484,323.56155 573.49839,320.62627 C 569.31066,318.00893 565.69105,316.16341 562.12716,312.59951 C 558.78023,309.25258 555.52122,305.99357 552.09371,302.56607 C 548.91078,299.38314 546.54427,295.67883 543.39806,292.53262 C 540.62468,289.75924 538.46487,285.73208 536.0402,282.49918 C 532.93661,278.36106 531.58715,272.92418 529.35123,268.45235 C 527.40535,264.5606 527.72459,259.93909 526.67565,255.74332 C 525.84038,252.40224 526.00675,248.54921 526.00675,245.04098 C 526.00675,240.68749 526.22513,237.24637 528.01344,233.66974 C 529.85631,229.98401 532.98028,226.82432 535.3713,223.6363 C 537.80639,220.38951 538.36583,216.74505 540.72247,213.60286 C 543.27621,210.19788 538.27084,213.46848 544.73585,209.58948 z"
       id="path2409"
       name="publicCloud3"
       order="19" />
    <path
       style="fill:#ffeeaa;fill-rule:evenodd;stroke:#000000;stroke-width:1px;stroke-linecap:butt;stroke-linejoin:miter;stroke-opacity:1"
       id="path2411" />
    <path
       style="fill:#00ffff;fill-rule:evenodd;stroke:#000000;stroke-width:3;stroke-linecap:butt;stroke-linejoin:miter;stroke-miterlimit:4;stroke-dasharray:none;stroke-opacity:1;opacity:0.92244898"
       d="M 529.71912,50.418906 C 529.25616,48.854826 532.30256,43.245336 534.4014,39.047666 C 536.19916,35.452136 539.54862,32.126226 543.09705,30.352016 C 546.81578,28.492646 550.01045,27.185316 553.79939,25.669736 C 558.09059,23.953256 562.66429,24.122406 567.17732,22.994156 C 570.50985,22.161026 573.97461,21.796506 577.21076,20.987466 C 580.33789,20.205686 583.98554,20.318566 587.24421,20.318566 C 590.81165,20.318566 594.3791,20.318566 597.94655,20.318566 C 601.91424,20.318566 603.51189,22.773386 607.97999,21.656366 C 613.89354,20.177976 618.17251,15.392246 622.69571,11.622916 C 626.34179,8.584516 629.01843,7.366656 633.39805,6.271746 C 637.43412,5.262726 641.64966,5.212186 645.43819,4.265056 C 649.28632,3.303026 653.21692,4.933956 656.80942,4.933956 C 660.02811,4.933956 664.21321,6.963606 666.84287,8.278436 C 670.72317,10.218586 673.83036,12.738486 677.54521,14.967396 C 681.4343,17.300856 685.24192,18.481306 688.91645,20.318566 C 692.90426,22.312476 695.61979,25.015226 698.94989,28.345326 C 702.17898,31.574416 705.53919,35.126756 708.98334,37.709876 C 712.91475,40.658436 716.46615,41.785726 720.35457,43.729936 C 722.83834,44.971826 730.63102,42.209766 733.0636,41.723256 C 737.41469,40.853036 743.83637,41.406406 747.77932,42.392146 C 754.15806,43.986836 760.40888,46.365786 765.83952,49.081106 C 770.87638,51.599536 771.11572,57.626806 773.19738,61.790136 C 778.1429,71.681176 776.39107,86.45424 778.54855,97.24165 C 778.90914,99.04457 779.44042,100.8091 779.88635,102.59282 C 781.11291,107.49907 781.22414,112.26303 781.22414,117.30854 C 781.22414,121.88677 780.71184,124.04728 777.21076,126.67309 C 771.78171,130.74488 766.07274,132.9693 759.15056,134.69984 C 754.64021,135.82743 749.73173,137.40257 745.77263,139.38212 C 739.50466,142.51611 733.65354,145.43377 727.04354,148.07777 C 719.91785,150.92805 711.9854,154.238 706.30775,158.78011 C 702.8517,161.54495 697.69582,163.98076 693.59872,164.80018 C 686.77816,166.16429 680.40856,166.42548 673.53183,168.14466 C 666.95964,169.78771 658.10724,169.48245 651.45825,169.48245 C 642.25944,169.48245 631.54003,171.05807 622.69571,172.82693 C 617.66122,173.83383 611.81888,173.49583 606.6422,173.49583 C 602.77545,173.49583 598.72524,173.6905 595.27096,172.82693 C 591.94227,171.99476 588.40158,172.28016 585.23752,171.48914 C 581.50284,170.55547 577.47117,169.71478 573.86628,168.81356 C 568.53402,167.48049 563.17811,164.39098 558.48166,161.4557 C 554.29393,158.83836 550.67432,156.99284 547.11043,153.42894 C 543.7635,150.08201 540.50449,146.823 537.07698,143.3955 C 533.89405,140.21257 531.52754,136.50826 528.38133,133.36205 C 525.60795,130.58867 523.44815,126.56151 521.02347,123.32861 C 517.91989,119.19049 516.57043,113.75361 514.33451,109.28178 C 512.38863,105.39003 512.70787,100.76852 511.65893,96.57275 C 510.82366,93.23167 511.2084,78.075796 512.99672,74.499166 C 514.83959,70.813436 517.96356,67.653746 520.35458,64.465726 C 522.78967,61.218936 523.3491,57.574476 525.70574,54.432286 C 528.25948,51.027306 523.25412,54.297906 529.71912,50.418906 z"
       id="path2413"
       sodipodi:nodetypes="cssssssssssssssssssssssssssssssssssssssssssssssssc"
       name="publicCloud2"
       order="13" />
    <path
       style="fill:#00ffff;fill-rule:evenodd;stroke:#000000;stroke-width:3;stroke-linecap:butt;stroke-linejoin:miter;stroke-miterlimit:4;stroke-dasharray:none;stroke-opacity:1;opacity:0.92244898"
       d="M 24.087016,352.69984 C 23.624056,351.13576 26.670456,345.52627 28.769296,341.3286 C 30.567056,337.73307 33.916516,334.40716 37.464946,332.63295 C 41.183676,330.77358 44.378346,329.46625 48.167286,327.95067 C 52.458486,326.23419 57.032186,326.40334 61.545216,325.27509 C 64.877746,324.44196 68.342506,324.07744 71.578656,323.2684 C 74.705786,322.48662 78.353436,322.5995 81.612106,322.5995 C 85.179546,322.5995 88.746996,322.5995 92.314446,322.5995 C 96.282136,322.5995 97.879786,325.05432 102.34789,323.9373 C 108.26144,322.45891 112.54041,317.67318 117.06361,313.90385 C 120.70969,310.86545 123.38633,309.64759 127.76595,308.55268 C 131.80202,307.54366 136.01756,307.49312 139.80609,306.54599 C 143.65422,305.58396 147.58482,307.21489 151.17732,307.21489 C 154.39601,307.21489 158.58111,309.24454 161.21077,310.55937 C 165.09107,312.49952 168.19826,315.01942 171.91311,317.24833 C 175.8022,319.58179 179.60982,320.76224 183.28435,322.5995 C 187.27216,324.59341 189.98769,327.29616 193.31779,330.62626 C 196.54688,333.85535 199.90709,337.40769 203.35124,339.99081 C 207.28265,342.93937 210.83405,344.06666 214.72247,346.01087 C 217.20624,347.25276 224.99892,344.4907 227.4315,344.00419 C 231.78259,343.13397 238.20427,343.68734 242.14722,344.67308 C 248.52596,346.26777 254.77678,348.64672 260.20742,351.36204 C 265.24428,353.88047 265.48362,359.90774 267.56528,364.07107 C 272.5108,373.96211 270.75897,388.73517 272.91645,399.52258 C 273.27704,401.3255 273.80832,403.09003 274.25425,404.87375 C 275.48081,409.78 275.59204,414.54396 275.59204,419.58947 C 275.59204,424.1677 275.07974,426.32821 271.57866,428.95402 C 266.14961,433.02581 260.44064,435.25023 253.51846,436.98077 C 249.00811,438.10836 244.09963,439.6835 240.14053,441.66305 C 233.87256,444.79704 228.02144,447.7147 221.41144,450.3587 C 214.28575,453.20898 206.3533,456.51893 200.67565,461.06104 C 197.2196,463.82588 192.06372,466.26169 187.96662,467.08111 C 181.14606,468.44522 174.77646,468.70641 167.89973,470.42559 C 161.32754,472.06864 152.47514,471.76338 145.82615,471.76338 C 136.62734,471.76338 125.90793,473.339 117.06361,475.10786 C 112.02912,476.11476 106.18678,475.77676 101.0101,475.77676 C 97.143346,475.77676 93.093136,475.97143 89.638856,475.10786 C 86.310166,474.27569 82.769476,474.56109 79.605416,473.77007 C 75.870736,472.8364 71.839066,471.99571 68.234176,471.09449 C 62.901916,469.76142 57.546006,466.67191 52.849556,463.73663 C 48.661826,461.11929 45.042216,459.27377 41.478326,455.70987 C 38.131396,452.36294 34.872386,449.10393 31.444876,445.67643 C 28.261946,442.4935 25.895436,438.78919 22.749226,435.64298 C 19.975846,432.8696 17.816041,428.84244 15.391366,425.60954 C 12.287781,421.47142 10.938318,416.03454 8.7024027,411.56271 C 6.7565247,407.67096 7.0757577,403.04945 6.0268177,398.85368 C 5.1915477,395.5126 5.3579207,391.65957 5.3579207,388.15134 C 5.3579207,383.79785 5.5762957,380.35673 7.3646097,376.7801 C 9.2074787,373.09437 12.331452,369.93468 14.72247,366.74666 C 17.157563,363.49987 17.716997,359.85541 20.073636,356.71322 C 22.627376,353.30824 17.622009,356.57884 24.087016,352.69984 z"
       id="path2415"
       name="publicCloud6"
       order="21" />
    <path
       style="fill:#00ffff;fill-rule:evenodd;stroke:#000000;stroke-width:3;stroke-linecap:butt;stroke-linejoin:miter;stroke-miterlimit:4;stroke-dasharray:none;stroke-opacity:1;opacity:0.92244898"
       d="M 544.48836,349.35536 C 544.0254,347.79128 547.0718,342.18179 549.17064,337.98412 C 550.9684,334.38859 554.31786,331.06268 557.86629,329.28847 C 561.58502,327.4291 564.77969,326.12177 568.56863,324.60619 C 572.85983,322.88971 577.43353,323.05886 581.94656,321.93061 C 585.27909,321.09748 588.74385,320.73296 591.98,319.92392 C 595.10713,319.14214 598.75478,319.25502 602.01345,319.25502 C 605.58089,319.25502 609.14834,319.25502 612.71579,319.25502 C 616.68348,319.25502 618.28113,321.70984 622.74923,320.59282 C 628.66278,319.11443 632.94175,314.3287 637.46495,310.55937 C 641.11103,307.52097 643.78767,306.30311 648.16729,305.2082 C 652.20336,304.19918 656.4189,304.14864 660.20743,303.20151 C 664.05556,302.23948 667.98616,303.87041 671.57866,303.87041 C 674.79735,303.87041 678.98245,305.90006 681.61211,307.21489 C 685.49241,309.15504 688.5996,311.67494 692.31445,313.90385 C 696.20354,316.23731 700.01116,317.41776 703.68569,319.25502 C 707.6735,321.24893 710.38903,323.95168 713.71913,327.28178 C 716.94822,330.51087 720.30843,334.06321 723.75258,336.64633 C 727.68399,339.59489 731.23539,340.72218 735.12381,342.66639 C 737.60758,343.90828 745.40026,341.14622 747.83284,340.65971 C 752.18393,339.78949 758.60561,340.34286 762.54856,341.3286 C 768.9273,342.92329 775.17812,345.30224 780.60876,348.01756 C 785.64562,350.53599 785.88496,356.56326 787.96662,360.72659 C 792.91214,370.61763 791.16031,385.39069 793.31779,396.1781 C 793.67838,397.98102 794.20966,399.74555 794.65559,401.52927 C 795.88215,406.43552 795.99338,411.19948 795.99338,416.24499 C 795.99338,420.82322 795.48108,422.98373 791.98,425.60954 C 786.55095,429.68133 780.84198,431.90575 773.9198,433.63629 C 769.40945,434.76388 764.50097,436.33902 760.54187,438.31857 C 754.2739,441.45256 748.42278,444.37022 741.81278,447.01422 C 734.68709,449.8645 726.75464,453.17445 721.07699,457.71656 C 717.62094,460.4814 712.46506,462.91721 708.36796,463.73663 C 701.5474,465.10074 695.1778,465.36193 688.30107,467.08111 C 681.72888,468.72416 672.87648,468.4189 666.22749,468.4189 C 657.02868,468.4189 646.30927,469.99452 637.46495,471.76338 C 632.43046,472.77028 626.58812,472.43228 621.41144,472.43228 C 617.54469,472.43228 613.49448,472.62695 610.0402,471.76338 C 606.71151,470.93121 603.17082,471.21661 600.00676,470.42559 C 596.27208,469.49192 592.24041,468.65123 588.63552,467.75001 C 583.30326,466.41694 577.94735,463.32743 573.2509,460.39215 C 569.06317,457.77481 565.44356,455.92929 561.87967,452.36539 C 558.53274,449.01846 555.27373,445.75945 551.84622,442.33195 C 548.66329,439.14902 546.29678,435.44471 543.15057,432.2985 C 540.37719,429.52512 538.21738,425.49796 535.79271,422.26506 C 532.68912,418.12694 531.33966,412.69006 529.10374,408.21823 C 527.15787,404.32648 527.4771,399.70497 526.42816,395.5092 C 525.59289,392.16812 525.75926,388.31509 525.75926,384.80686 C 525.75926,380.45337 525.97764,377.01225 527.76595,373.43562 C 529.60882,369.74989 532.73279,366.5902 535.12381,363.40218 C 537.5589,360.15539 538.11834,356.51093 540.47498,353.36874 C 543.02872,349.96376 538.02335,353.23436 544.48836,349.35536 z"
       id="path2417"
       name="publicCloud8"
       order="7" />
    <path
       style="fill:#00ffff;fill-rule:evenodd;stroke:#000000;stroke-width:3;stroke-linecap:butt;stroke-linejoin:miter;stroke-miterlimit:4;stroke-dasharray:none;stroke-opacity:1;opacity:0.92244898"
       d="M 285.62547,243.00084 C 285.16251,241.43676 288.20891,235.82727 290.30775,231.6296 C 292.10551,228.03407 295.45497,224.70816 299.0034,222.93395 C 302.72213,221.07458 305.9168,219.76725 309.70574,218.25167 C 313.99694,216.53519 318.57064,216.70434 323.08367,215.57609 C 326.4162,214.74296 329.88096,214.37844 333.11711,213.5694 C 336.24424,212.78762 339.89189,212.9005 343.15056,212.9005 C 346.718,212.9005 350.28545,212.9005 353.8529,212.9005 C 357.82059,212.9005 359.41824,215.35532 363.88634,214.2383 C 369.79989,212.75991 374.07886,207.97418 378.60206,204.20485 C 382.24814,201.16645 384.92478,199.94859 389.3044,198.85368 C 393.34047,197.84466 397.55601,197.79412 401.34454,196.84699 C 405.19267,195.88496 409.12327,197.51589 412.71577,197.51589 C 415.93446,197.51589 420.11956,199.54554 422.74922,200.86037 C 426.62952,202.80052 429.73671,205.32042 433.45156,207.54933 C 437.34065,209.88279 441.14827,211.06324 444.8228,212.9005 C 448.81061,214.89441 451.52614,217.59716 454.85624,220.92726 C 458.08533,224.15635 461.44554,227.70869 464.88969,230.29181 C 468.8211,233.24037 472.3725,234.36766 476.26092,236.31187 C 478.74469,237.55376 486.53737,234.7917 488.96995,234.30519 C 493.32104,233.43497 499.74272,233.98834 503.68567,234.97408 C 510.06441,236.56877 516.31523,238.94772 521.74587,241.66304 C 526.78273,244.18147 527.02207,250.20874 529.10373,254.37207 C 534.04925,264.26311 532.29742,279.03617 534.4549,289.82358 C 534.81549,291.6265 535.34677,293.39103 535.7927,295.17475 C 537.01926,300.081 537.13049,304.84496 537.13049,309.89047 C 537.13049,314.4687 536.61819,316.62921 533.11711,319.25502 C 527.68806,323.32681 521.97909,325.55123 515.05691,327.28177 C 510.54656,328.40936 505.63808,329.9845 501.67898,331.96405 C 495.41101,335.09804 489.55989,338.0157 482.94989,340.6597 C 475.8242,343.50998 467.89175,346.81993 462.2141,351.36204 C 458.75805,354.12688 453.60217,356.56269 449.50507,357.38211 C 442.68451,358.74622 436.31491,359.00741 429.43818,360.72659 C 422.86599,362.36964 414.01359,362.06438 407.3646,362.06438 C 398.16579,362.06438 387.44638,363.64 378.60206,365.40886 C 373.56757,366.41576 367.72523,366.07776 362.54855,366.07776 C 358.6818,366.07776 354.63159,366.27243 351.17731,365.40886 C 347.84862,364.57669 344.30793,364.86209 341.14387,364.07107 C 337.40919,363.1374 333.37752,362.29671 329.77263,361.39549 C 324.44037,360.06242 319.08446,356.97291 314.38801,354.03763 C 310.20028,351.42029 306.58067,349.57477 303.01678,346.01087 C 299.66985,342.66394 296.41084,339.40493 292.98333,335.97743 C 289.8004,332.7945 287.43389,329.09019 284.28768,325.94398 C 281.5143,323.1706 279.3545,319.14344 276.92982,315.91054 C 273.82624,311.77242 272.47678,306.33554 270.24086,301.86371 C 268.29498,297.97196 268.61422,293.35045 267.56528,289.15468 C 266.73001,285.8136 266.89638,281.96057 266.89638,278.45234 C 266.89638,274.09885 267.11475,270.65773 268.90307,267.0811 C 270.74594,263.39537 273.86991,260.23568 276.26093,257.04766 C 278.69602,253.80087 279.25545,250.15641 281.61209,247.01422 C 284.16583,243.60924 279.16047,246.87984 285.62547,243.00084 z"
       id="path2419"
       name="publicCloud4"
       order="17" />
    <path
       style="fill:#00ffff;fill-rule:evenodd;stroke:#000000;stroke-width:3;stroke-linecap:butt;stroke-linejoin:miter;stroke-miterlimit:4;stroke-dasharray:none;stroke-opacity:1;opacity:0.92244898"
       d="M 185.08943,143.7421 C 184.62647,142.17802 187.67287,136.56853 189.77171,132.37086 C 191.56947,128.77533 194.91893,125.44942 198.46736,123.67521 C 202.18609,121.81584 205.38076,120.50851 209.1697,118.99293 C 213.4609,117.27645 218.0346,117.4456 222.54763,116.31735 C 225.88016,115.48422 229.34492,115.1197 232.58107,114.31066 C 235.7082,113.52888 239.35585,113.64176 242.61452,113.64176 C 246.18196,113.64176 249.74941,113.64176 253.31686,113.64176 C 257.28455,113.64176 259.5511,107.40092 264.0192,106.2839 C 269.93275,104.80551 273.54282,108.71544 278.06602,104.94611 C 281.7121,101.90771 284.38874,100.68985 288.76836,99.594936 C 292.80443,98.585916 297.01997,98.535376 300.8085,97.588246 C 304.65663,96.626216 308.58723,98.257146 312.17973,98.257146 C 315.39842,98.257146 319.58352,100.2868 322.21318,101.60163 C 326.09348,103.54178 329.20067,106.06168 332.91552,108.29059 C 336.80461,110.62405 340.61223,111.8045 344.28676,113.64176 C 348.27457,115.63567 350.9901,118.33842 354.3202,121.66852 C 357.54929,124.89761 360.9095,128.44995 364.35365,131.03307 C 368.28506,133.98163 371.83646,135.10892 375.72488,137.05313 C 378.20865,138.29502 386.00133,135.53296 388.43391,135.04645 C 392.785,134.17623 399.20668,134.7296 403.14963,135.71534 C 409.52837,137.31003 415.77919,139.68898 421.20983,142.4043 C 426.24669,144.92273 426.48603,150.95 428.56769,155.11333 C 433.51321,165.00437 431.76138,179.77743 433.91886,190.56484 C 434.27945,192.36776 434.81073,194.13229 435.25666,195.91601 C 436.48322,200.82226 436.59445,205.58622 436.59445,210.63173 C 436.59445,215.20996 436.08215,217.37047 432.58107,219.99628 C 427.15202,224.06807 421.44305,226.29249 414.52087,228.02303 C 410.01052,229.15062 405.10204,230.72576 401.14294,232.70531 C 394.87497,235.8393 389.02385,238.75696 382.41385,241.40096 C 375.28816,244.25124 367.35571,247.56119 361.67806,252.1033 C 358.22201,254.86814 353.06613,257.30395 348.96903,258.12337 C 342.14847,259.48748 335.77887,259.74867 328.90214,261.46785 C 322.32995,263.1109 313.47755,262.80564 306.82856,262.80564 C 297.62975,262.80564 286.91034,264.38126 278.06602,266.15012 C 273.03153,267.15702 267.18919,266.81902 262.01251,266.81902 C 258.14576,266.81902 254.09555,267.01369 250.64127,266.15012 C 247.31258,265.31795 243.77189,265.60335 240.60783,264.81233 C 236.87315,263.87866 232.84148,263.03797 229.23659,262.13675 C 223.90433,260.80368 218.54842,257.71417 213.85197,254.77889 C 209.66424,252.16155 206.04463,250.31603 202.48074,246.75213 C 199.13381,243.4052 195.8748,240.14619 192.44729,236.71869 C 189.26436,233.53576 186.89785,229.83145 183.75164,226.68524 C 180.97826,223.91186 178.81846,219.8847 176.39378,216.6518 C 173.2902,212.51368 171.94073,207.0768 169.70482,202.60497 C 167.75894,198.71322 168.07817,194.09171 167.02923,189.89594 C 166.19396,186.55486 166.36034,182.70183 166.36034,179.1936 C 166.36034,174.84011 166.57871,171.39899 168.36703,167.82236 C 170.20989,164.13663 173.33387,160.97694 175.72489,157.78892 C 178.15998,154.54213 178.71941,150.89767 181.07605,147.75548 C 183.62979,144.3505 178.62442,147.6211 185.08943,143.7421 z"
       id="path2421"
       sodipodi:nodetypes="csssssssssssssssssssssssssssssssssssssssssssssssssc"
       name="publicCloud1"
       order="11" />
    <path
       style="fill:#00ffff;fill-rule:evenodd;stroke:#000000;stroke-width:3;stroke-linecap:butt;stroke-linejoin:miter;stroke-miterlimit:4;stroke-dasharray:none;stroke-opacity:1;opacity:0.92244898"
       d="M 191.29572,322.53827 C 190.83276,320.97419 193.87916,315.3647 195.978,311.16703 C 197.77576,307.5715 201.12522,304.24559 204.67365,302.47138 C 208.39238,300.61201 211.58705,299.30468 215.37599,297.7891 C 219.66719,296.07262 224.24089,296.24177 228.75392,295.11352 C 232.08645,294.28039 235.55121,293.91587 238.78736,293.10683 C 241.91449,292.32505 245.56214,292.43793 248.82081,292.43793 C 252.38825,292.43793 255.9557,292.43793 259.52315,292.43793 C 263.49084,292.43793 265.08849,294.89275 269.55659,293.77573 C 275.47014,292.29734 279.74911,287.51161 284.27231,283.74228 C 287.91839,280.70388 290.59503,279.48602 294.97465,278.39111 C 299.01072,277.38209 303.22626,277.33155 307.01479,276.38442 C 310.86292,275.42239 314.79352,277.05332 318.38602,277.05332 C 321.60471,277.05332 325.78981,279.08297 328.41947,280.3978 C 332.29977,282.33795 335.40696,284.85785 339.12181,287.08676 C 343.0109,289.42022 346.81852,290.60067 350.49305,292.43793 C 354.48086,294.43184 357.19639,297.13459 360.52649,300.46469 C 363.75558,303.69378 367.11579,307.24612 370.55994,309.82924 C 374.49135,312.7778 378.04275,313.90509 381.93117,315.8493 C 384.41494,317.09119 392.20762,314.32913 394.6402,313.84262 C 398.99129,312.9724 405.41297,313.52577 409.35592,314.51151 C 415.73466,316.1062 421.98548,318.48515 427.41612,321.20047 C 432.45298,323.7189 432.69232,329.74617 434.77398,333.9095 C 439.7195,343.80054 437.96767,358.5736 440.12515,369.36101 C 440.48574,371.16393 441.01702,372.92846 441.46295,374.71218 C 442.68951,379.61843 442.80074,384.38239 442.80074,389.4279 C 442.80074,394.00613 442.28844,396.16664 438.78736,398.79245 C 433.35831,402.86424 427.64934,405.08866 420.72716,406.8192 C 416.21681,407.94679 411.30833,409.52193 407.34923,411.50148 C 401.08126,414.63547 395.23014,417.55313 388.62014,420.19713 C 381.49445,423.04741 373.562,426.35736 367.88435,430.89947 C 364.4283,433.66431 359.27242,436.10012 355.17532,436.91954 C 348.35476,438.28365 341.98516,438.54484 335.10843,440.26402 C 328.53624,441.90707 319.68384,441.60181 313.03485,441.60181 C 303.83604,441.60181 293.11663,443.17743 284.27231,444.94629 C 279.23782,445.95319 273.39548,445.61519 268.2188,445.61519 C 264.35205,445.61519 260.30184,445.80986 256.84756,444.94629 C 253.51887,444.11412 249.97818,444.39952 246.81412,443.6085 C 243.07944,442.67483 239.04777,441.83414 235.44288,440.93292 C 230.11062,439.59985 224.75471,436.51034 220.05826,433.57506 C 215.87053,430.95772 212.25092,429.1122 208.68703,425.5483 C 205.3401,422.20137 202.08109,418.94236 198.65358,415.51486 C 195.47065,412.33193 193.10414,408.62762 189.95793,405.48141 C 187.18455,402.70803 185.02475,398.68087 182.60007,395.44797 C 179.49649,391.30985 178.14703,385.87297 175.91111,381.40114 C 173.96523,377.50939 174.28447,372.88788 173.23553,368.69211 C 172.40026,365.35103 172.56663,361.498 172.56663,357.98977 C 172.56663,353.63628 172.785,350.19516 174.57332,346.61853 C 176.41619,342.9328 179.54016,339.77311 181.93118,336.58509 C 184.36627,333.3383 184.9257,329.69384 187.28234,326.55165 C 189.83608,323.14667 184.83072,326.41727 191.29572,322.53827 z"
       id="path2423"
       name="publicCloud7"
       order="23" />
    <path
       style="fill:#00ffff;fill-rule:evenodd;stroke:#000000;stroke-width:3;stroke-linecap:butt;stroke-linejoin:miter;stroke-opacity:1;stroke-miterlimit:4;stroke-dasharray:none;opacity:0.92244897999999997;fill-opacity:1"
       d="M 24.087014,50.358705 C 23.624054,48.794625 26.670454,43.185135 28.769294,38.987465 C 30.567054,35.391935 33.916514,32.066025 37.464944,30.291815 C 41.183674,28.432445 44.378344,27.125115 48.167284,25.609535 C 52.458484,23.893055 57.032184,24.062205 61.545214,22.933955 C 64.877744,22.100825 68.342504,21.736305 71.578654,20.927265 C 74.705784,20.145485 78.353434,20.258365 81.612104,20.258365 C 85.179544,20.258365 88.746994,20.258365 92.314444,20.258365 C 96.282134,20.258365 97.879784,22.713185 102.34788,21.596165 C 108.26143,20.117775 112.5404,15.332045 117.0636,11.562715 C 120.70968,8.5243148 123.38632,7.3064548 127.76594,6.2115448 C 131.80201,5.2025248 136.01755,5.1519848 139.80608,4.2048548 C 143.65421,3.2428248 147.58481,4.8737548 151.17731,4.8737548 C 154.396,4.8737548 158.5811,6.9034048 161.21076,8.2182348 C 165.09106,10.158385 168.19825,12.678285 171.9131,14.907195 C 175.80219,17.240655 179.60981,18.421105 183.28434,20.258365 C 187.27215,22.252275 189.98768,24.955025 193.31778,28.285125 C 196.54687,31.514215 199.90708,35.066555 203.35123,37.649675 C 207.28264,40.598235 210.83404,41.725525 214.72246,43.669735 C 217.20623,44.911625 224.99891,42.149565 227.43149,41.663055 C 231.78258,40.792835 238.20426,41.346205 242.14721,42.331945 C 248.52595,43.926635 254.77677,46.305585 260.20741,49.020905 C 265.24427,51.539335 265.48361,57.566607 267.56527,61.729937 C 272.51079,71.620977 270.75896,86.394037 272.91644,97.181447 C 273.27703,98.984367 273.80831,100.7489 274.25424,102.53262 C 275.4808,107.43887 275.59203,112.20283 275.59203,117.24834 C 275.59203,121.82657 275.07973,123.98708 271.57865,126.61289 C 266.1496,130.68468 260.44063,132.9091 253.51845,134.63964 C 249.0081,135.76723 244.09962,137.34237 240.14052,139.32192 C 233.87255,142.45591 225.5163,142.20097 221.41143,148.01757 C 215.62353,156.21902 206.35329,154.1778 200.67564,158.71991 C 197.21959,161.48475 192.06371,163.92056 187.96661,164.73998 C 181.14605,166.10409 174.77645,166.36528 167.89972,168.08446 C 161.32753,169.72751 152.47513,169.42225 145.82614,169.42225 C 136.62733,169.42225 125.90792,170.99787 117.0636,172.76673 C 112.02911,173.77363 106.18677,173.43563 101.01009,173.43563 C 97.143344,173.43563 93.093134,173.6303 89.638854,172.76673 C 86.310164,171.93456 82.769474,172.21996 79.605414,171.42894 C 75.870734,170.49527 71.839064,169.65458 68.234174,168.75336 C 62.901914,167.42029 57.546004,164.33078 52.849554,161.3955 C 48.661824,158.77816 25.895434,136.44806 22.749224,133.30185 C 19.975844,130.52847 17.816044,126.50131 15.391364,123.26841 C 12.287784,119.13029 10.938314,113.69341 8.7024044,109.22158 C 6.7565244,105.32983 7.0757544,100.70832 6.0268144,96.512547 C 5.1915444,93.171467 5.3579244,89.318437 5.3579244,85.810207 C 5.3579244,81.456717 5.5762944,78.015597 7.3646144,74.438967 C 9.2074744,70.753237 12.331454,67.593547 14.722474,64.405527 C 17.157564,61.158737 17.716994,57.514277 20.073634,54.372087 C 22.627374,50.967105 17.622004,54.237707 24.087014,50.358705 z"
       id="path2427"
       sodipodi:nodetypes="csssssssssssssssssssssssssssssssssssssssssssssssc"
       name="publicCloud0"
       order="9" />
    <text
       xml:space="preserve"
       style="font-size:16px;font-style:oblique;font-weight:normal;fill:#000000;fill-opacity:1;stroke:none;stroke-width:3;stroke-linecap:butt;stroke-linejoin:miter;stroke-opacity:1;font-family:Bitstream Vera Sans;-inkscape-font-specification:Bitstream Vera Sans Oblique;font-stretch:normal;font-variant:normal;text-anchor:start;text-align:start;writing-mode:lr;line-height:125%;stroke-miterlimit:4;stroke-dasharray:none"
       x="38.12709"
       y="50.568562"
       id="text2429"
       name="publicTwt0"
       order="10"
       sodipodi:linespacing="125%"><tspan
         sodipodi:role="line"
         id="tspan2431"
         x="38.12709"
         y="50.568562">text</tspan></text>
    <text
       xml:space="preserve"
       style="font-size:16px;font-style:oblique;font-variant:normal;font-weight:normal;font-stretch:normal;text-align:start;line-height:125%;writing-mode:lr;text-anchor:start;fill:#000000;fill-opacity:1;stroke:none;stroke-width:3;stroke-linecap:butt;stroke-linejoin:miter;stroke-miterlimit:4;stroke-dasharray:none;stroke-opacity:1;font-family:Bitstream Vera Sans;-inkscape-font-specification:Bitstream Vera Sans Oblique"
       x="196.57155"
       y="157.61166"
       id="text2433"
       name="publicTwt1"
       order="12"
       sodipodi:linespacing="125%"><tspan
         sodipodi:role="line"
         id="tspan2435"
         x="196.57155"
         y="157.61166">text</tspan></text>
    <text
       xml:space="preserve"
       style="font-size:16px;font-style:oblique;font-variant:normal;font-weight:normal;font-stretch:normal;text-align:start;line-height:125%;writing-mode:lr;text-anchor:start;fill:#000000;fill-opacity:1;stroke:none;stroke-width:3;stroke-linecap:butt;stroke-linejoin:miter;stroke-miterlimit:4;stroke-dasharray:none;stroke-opacity:1;font-family:Bitstream Vera Sans;-inkscape-font-specification:Bitstream Vera Sans Oblique"
       x="542.0307"
       y="54.027596"
       id="text2437"
       name="publicTwt2"
       order="14"
       sodipodi:linespacing="125%"><tspan
         sodipodi:role="line"
         id="tspan2439"
         x="542.0307"
         y="54.027596">text</tspan></text>
    <text
       xml:space="preserve"
       style="font-size:16px;font-style:oblique;font-variant:normal;font-weight:normal;font-stretch:normal;text-align:start;line-height:125%;writing-mode:lr;text-anchor:start;fill:#000000;fill-opacity:1;stroke:none;stroke-width:3;stroke-linecap:butt;stroke-linejoin:miter;stroke-miterlimit:4;stroke-dasharray:none;stroke-opacity:1;font-family:Bitstream Vera Sans;-inkscape-font-specification:Bitstream Vera Sans Oblique"
       x="552.01727"
       y="218.5761"
       id="text2441"
       name="publicTwt3"
       order="20"
       sodipodi:linespacing="125%"><tspan
         sodipodi:role="line"
         id="tspan2443"
         x="552.01727"
         y="218.5761">text</tspan></text>
    <text
       xml:space="preserve"
       style="font-size:16px;font-style:oblique;font-variant:normal;font-weight:normal;font-stretch:normal;text-align:start;line-height:125%;writing-mode:lr;text-anchor:start;fill:#000000;fill-opacity:1;stroke:none;stroke-width:3;stroke-linecap:butt;stroke-linejoin:miter;stroke-miterlimit:4;stroke-dasharray:none;stroke-opacity:1;font-family:Bitstream Vera Sans;-inkscape-font-specification:Bitstream Vera Sans Oblique"
       x="294.49222"
       y="247.33864"
       id="text2445"
       name="publicTwt4"
       order="18"
       sodipodi:linespacing="125%"><tspan
         sodipodi:role="line"
         id="tspan2447"
         x="294.49222"
         y="247.33864">text</tspan></text>
    <text
       xml:space="preserve"
       style="font-size:16px;font-style:oblique;font-variant:normal;font-weight:normal;font-stretch:normal;text-align:start;line-height:125%;writing-mode:lr;text-anchor:start;fill:#000000;fill-opacity:1;stroke:none;stroke-width:3;stroke-linecap:butt;stroke-linejoin:miter;stroke-miterlimit:4;stroke-dasharray:none;stroke-opacity:1;font-family:Bitstream Vera Sans;-inkscape-font-specification:Bitstream Vera Sans Oblique"
       x="31.615955"
       y="211.88713"
       id="text2449"
       name="publicTwt5"
       order="16"
       sodipodi:linespacing="125%"><tspan
         sodipodi:role="line"
         id="tspan2451"
         x="31.615955"
         y="211.88713">text</tspan></text>
    <text
       xml:space="preserve"
       style="font-size:16px;font-style:oblique;font-variant:normal;font-weight:normal;font-stretch:normal;text-align:start;line-height:125%;writing-mode:lr;text-anchor:start;fill:#000000;fill-opacity:1;stroke:none;stroke-width:3;stroke-linecap:butt;stroke-linejoin:miter;stroke-miterlimit:4;stroke-dasharray:none;stroke-opacity:1;font-family:Bitstream Vera Sans;-inkscape-font-specification:Bitstream Vera Sans Oblique"
       x="30.278164"
       y="361.05099"
       id="text2453"
       name="publicTwt6"
       order="22"
       sodipodi:linespacing="125%"><tspan
         sodipodi:role="line"
         id="tspan2455"
         x="30.278164"
         y="361.05099">text</tspan></text>
    <text
       xml:space="preserve"
       style="font-size:16px;font-style:oblique;font-variant:normal;font-weight:normal;font-stretch:normal;text-align:start;line-height:125%;writing-mode:lr;text-anchor:start;fill:#000000;fill-opacity:1;stroke:none;stroke-width:3;stroke-linecap:butt;stroke-linejoin:miter;stroke-miterlimit:4;stroke-dasharray:none;stroke-opacity:1;font-family:Bitstream Vera Sans;-inkscape-font-specification:Bitstream Vera Sans Oblique"
       x="198.15578"
       y="332.2272"
       id="text2457"
       name="publicTwt7"
       order="24"
       sodipodi:linespacing="125%"><tspan
         sodipodi:role="line"
         id="tspan2459"
         x="198.15578"
         y="332.2272">text</tspan></text>
    <text
       xml:space="preserve"
       style="font-size:16px;font-style:oblique;font-variant:normal;font-weight:normal;font-stretch:normal;text-align:start;line-height:125%;writing-mode:lr;text-anchor:start;fill:#000000;fill-opacity:1;stroke:none;stroke-width:3;stroke-linecap:butt;stroke-linejoin:miter;stroke-miterlimit:4;stroke-dasharray:none;stroke-opacity:1;font-family:Bitstream Vera Sans;-inkscape-font-specification:Bitstream Vera Sans Oblique"
       x="553.3551"
       y="354.36203"
       id="text2461"
       name="publicTwt8"
       order="8"
       sodipodi:linespacing="125%"><tspan
         sodipodi:role="line"
         id="tspan2463"
         x="553.3551"
         y="354.36203">text</tspan></text>
    <g
       id="g2496"
       name="twitButton"
       order="1000">
      <rect
         ry="8"
         rx="8"
         y="9.0969896"
         x="688.29431"
         height="30.100334"
         width="105.68562"
         id="rect2490"
         style="opacity:1;fill:#000000;fill-opacity:1;fill-rule:evenodd;stroke:none;stroke-width:4.30000019;stroke-linecap:round;stroke-linejoin:round;stroke-miterlimit:4;stroke-dasharray:none;stroke-opacity:1" />
      <text
         id="text2492"
         y="28.488295"
         x="723.08362"
         style="font-size:18px;font-style:normal;font-weight:bold;fill:#ffffff;fill-opacity:1;stroke:none;stroke-width:1px;stroke-linecap:butt;stroke-linejoin:miter;stroke-opacity:1;font-family:Bitstream Vera Sans;-inkscape-font-specification:Bitstream Vera Sans Bold"
         xml:space="preserve"><tspan
           y="28.488295"
           x="723.08362"
           id="tspan2494"
           sodipodi:role="line">twit</tspan></text>
    </g>
    <g
       id="g2501"
       transform="translate(-2.6755881,431.10368)"
       name="quitButton"
       order="1000">
      <rect
         ry="8"
         rx="8"
         y="9.0969896"
         x="688.29431"
         height="30.100334"
         width="105.68562"
         id="rect2503"
         style="opacity:1;fill:#000000;fill-opacity:1;fill-rule:evenodd;stroke:none;stroke-width:4.30000019;stroke-linecap:round;stroke-linejoin:round;stroke-miterlimit:4;stroke-dasharray:none;stroke-opacity:1" />
      <text
         id="text2505"
         y="28.488295"
         x="723.08362"
         style="font-size:18px;font-style:normal;font-weight:bold;fill:#ffffff;fill-opacity:1;stroke:none;stroke-width:1px;stroke-linecap:butt;stroke-linejoin:miter;stroke-opacity:1;font-family:Bitstream Vera Sans;-inkscape-font-specification:Bitstream Vera Sans Bold"
         xml:space="preserve"><tspan
           y="28.488295"
           x="723.08362"
           id="tspan2507"
           sodipodi:role="line">quit</tspan></text>
    </g>
    <path
       style="fill:#00ffff;fill-rule:evenodd;stroke:#000000;stroke-width:3;stroke-linecap:butt;stroke-linejoin:miter;stroke-miterlimit:4;stroke-dasharray:none;stroke-opacity:1;opacity:0.92244898"
       d="M 282.61341,34.050847 C 282.15045,32.486767 285.19685,26.877277 287.29569,22.679607 C 289.09345,19.084077 292.44291,15.758167 295.99134,13.983957 C 299.71007,12.124587 302.90474,10.817257 306.69368,9.3016772 C 310.98488,7.5851972 315.55858,7.7543472 320.07161,6.6260972 C 323.40414,5.7929672 326.8689,5.4284472 330.10505,4.6194072 C 333.23218,3.8376272 336.87983,3.9505072 340.1385,3.9505072 C 343.70594,3.9505072 347.27339,3.9505072 350.84084,3.9505072 C 354.80853,3.9505072 356.40618,6.4053272 360.87428,5.2883072 C 366.78783,3.8099172 371.0668,-0.97581281 375.59,-4.7451428 C 379.23608,-7.7835428 381.91272,-9.0014028 386.29234,-10.096313 C 390.32841,-11.105333 394.54395,-11.155873 398.33248,-12.103003 C 402.18061,-13.065033 406.11121,-11.434103 409.70371,-11.434103 C 412.9224,-11.434103 417.1075,-9.4044528 419.73716,-8.0896228 C 423.61746,-6.1494728 426.72465,-3.6295728 430.4395,-1.4006628 C 434.32859,0.93279719 438.13621,2.1132472 441.81074,3.9505072 C 445.79855,5.9444172 448.51408,8.6471672 451.84418,11.977267 C 455.07327,15.206357 458.43348,18.758697 461.87763,21.341817 C 465.80904,24.290377 469.36044,25.417667 473.24886,27.361877 C 475.73263,28.603767 483.52531,25.841707 485.95789,25.355197 C 490.30898,24.484977 496.73066,25.038347 500.67361,26.024087 C 507.05235,27.618777 513.30317,29.997727 518.73381,32.713047 C 523.77067,35.231477 524.01001,41.258747 526.09167,45.422077 C 531.03719,55.313117 529.28536,70.086177 531.44284,80.873583 C 531.80343,82.676503 532.33471,84.441033 532.78064,86.224759 C 534.0072,91.131009 534.11843,95.894969 534.11843,100.94048 C 534.11843,105.51871 533.60613,107.67922 530.10505,110.30503 C 524.676,114.37682 518.96703,116.60124 512.04485,118.33178 C 507.5345,119.45937 502.62602,121.03451 498.66692,123.01406 C 492.39895,126.14805 486.54783,129.06571 479.93783,131.70971 C 472.81214,134.55999 464.87969,137.86994 459.20204,142.41205 C 455.74599,145.17689 450.59011,147.6127 446.49301,148.43212 C 439.67245,149.79623 433.30285,150.05742 426.42612,151.7766 C 419.85393,153.41965 411.00153,153.11439 404.35254,153.11439 C 395.15373,153.11439 384.43432,154.69001 375.59,156.45887 C 370.55551,157.46577 364.71317,157.12777 359.53649,157.12777 C 355.66974,157.12777 351.61953,157.32244 348.16525,156.45887 C 344.83656,155.6267 341.29587,155.9121 338.13181,155.12108 C 334.39713,154.18741 330.36546,153.34672 326.76057,152.4455 C 321.42831,151.11243 316.0724,148.02292 311.37595,145.08764 C 307.18822,142.4703 303.56861,140.62478 300.00472,137.06088 C 296.65779,133.71395 293.39878,130.45494 289.97127,127.02744 C 286.78834,123.84451 284.42183,120.1402 281.27562,116.99399 C 278.50224,114.22061 276.34243,110.19345 273.91776,106.96055 C 270.81417,102.82243 269.46471,97.385549 267.22879,92.913719 C 265.28291,89.021969 265.60215,84.400453 264.55321,80.204683 C 263.71794,76.863607 263.88431,73.010577 263.88431,69.502347 C 263.88431,65.148857 264.10269,61.707737 265.891,58.131107 C 267.73387,54.445377 270.85784,51.285687 273.24886,48.097667 C 275.68395,44.850877 276.24339,41.206417 278.60003,38.064227 C 281.15377,34.659247 276.1484,37.929847 282.61341,34.050847 z"
       id="path5505"
       name="publicCloud10"
       order="25" />
    <text
       xml:space="preserve"
       style="font-size:16px;font-style:oblique;font-variant:normal;font-weight:normal;font-stretch:normal;text-align:start;line-height:125%;writing-mode:lr;text-anchor:start;fill:#000000;fill-opacity:1;stroke:none;stroke-width:3;stroke-linecap:butt;stroke-linejoin:miter;stroke-miterlimit:4;stroke-dasharray:none;stroke-opacity:1;font-family:Bitstream Vera Sans;-inkscape-font-specification:Bitstream Vera Sans Oblique"
       x="289.89484"
       y="43.037453"
       id="text5507"
       name="publicTwt10"
       order="26"
       sodipodi:linespacing="125%"><tspan
         sodipodi:role="line"
         id="tspan5509"
         x="289.89484"
         y="43.037453">text</tspan></text>
    <path
       style="fill:#00ffff;fill-rule:evenodd;stroke:#000000;stroke-width:3;stroke-linecap:butt;stroke-linejoin:miter;stroke-miterlimit:4;stroke-dasharray:none;stroke-opacity:1;opacity:0.92244898"
       d="M 360.17175,108.16215 C 359.70879,106.59807 362.75519,100.98858 364.85403,96.790914 C 366.65179,93.195384 370.00125,89.869474 373.54968,88.095264 C 377.26841,86.235894 380.46308,84.928564 384.25202,83.412994 C 388.54322,81.696514 393.11692,81.865664 397.62995,80.737414 C 400.96248,79.904284 404.42724,79.539764 407.66339,78.730724 C 410.79052,77.948944 414.43817,78.061824 417.69684,78.061824 C 421.26428,78.061824 424.83173,78.061824 428.39918,78.061824 C 432.36687,78.061824 433.96452,80.516644 438.43262,79.399624 C 444.34617,77.921234 448.62514,73.135504 453.14834,69.366174 C 456.79442,66.327774 459.47106,65.109914 463.85068,64.014994 C 467.88675,63.00597 472.10229,62.95543 475.89082,62.0083 C 479.73895,61.04627 483.66955,62.6772 487.26205,62.6772 C 490.48074,62.6772 494.66584,64.706864 497.2955,66.021694 C 501.1758,67.961844 504.28299,70.481744 507.99784,72.710654 C 511.88693,75.044114 515.69455,76.224564 519.36908,78.061824 C 523.35689,80.055734 526.07242,82.758484 529.40252,86.088574 C 532.63161,89.317664 535.99182,92.870004 539.43597,95.453124 C 543.36738,98.401684 546.91878,99.528974 550.8072,101.47318 C 553.29097,102.71507 561.08365,99.953014 563.51623,99.466504 C 567.86732,98.596284 574.289,99.149654 578.23195,100.13539 C 584.61069,101.73008 590.86151,104.10903 596.29215,106.82435 C 601.32901,109.34278 601.56835,115.37005 603.65001,119.53338 C 608.59553,129.42442 606.8437,144.19748 609.00118,154.98489 C 609.36177,156.78781 609.89305,158.55234 610.33898,160.33607 C 611.56554,165.24232 611.67677,170.00628 611.67677,175.05179 C 611.67677,179.63002 611.16447,181.79053 607.66339,184.41634 C 602.23434,188.48813 596.52537,190.71255 589.60319,192.44309 C 585.09284,193.57068 580.18436,195.14582 576.22526,197.12537 C 569.95729,200.25936 564.10617,203.17702 557.49617,205.82102 C 550.37048,208.6713 542.43803,211.98125 536.76038,216.52336 C 533.30433,219.2882 528.14845,221.72401 524.05135,222.54343 C 517.23079,223.90754 510.86119,224.16873 503.98446,225.88791 C 497.41227,227.53096 488.55987,227.2257 481.91088,227.2257 C 472.71207,227.2257 461.99266,228.80132 453.14834,230.57018 C 448.11385,231.57708 442.27151,231.23908 437.09483,231.23908 C 433.22808,231.23908 429.17787,231.43375 425.72359,230.57018 C 422.3949,229.73801 418.85421,230.02341 415.69015,229.23239 C 411.95547,228.29872 407.9238,227.45803 404.31891,226.55681 C 398.98665,225.22374 393.63074,222.13423 388.93429,219.19895 C 384.74656,216.58161 381.12695,214.73609 377.56306,211.17219 C 374.21613,207.82526 370.95712,204.56625 367.52961,201.13875 C 364.34668,197.95582 361.98017,194.25151 358.83396,191.1053 C 356.06058,188.33192 353.90077,184.30476 351.4761,181.07186 C 348.37251,176.93374 347.02305,171.49686 344.78713,167.02503 C 342.84125,163.13328 343.16049,158.51176 342.11155,154.31599 C 341.27628,150.97491 341.44265,147.12188 341.44265,143.61365 C 341.44265,139.26016 341.66103,135.81904 343.44934,132.24241 C 345.29221,128.55668 348.41618,125.39699 350.8072,122.20897 C 353.24229,118.96218 353.80173,115.31772 356.15837,112.17553 C 358.71211,108.77055 353.70674,112.04115 360.17175,108.16215 z"
       id="path5511"
       name="publicCloud9"
       order="27" />
    <text
       xml:space="preserve"
       style="font-size:16px;font-style:oblique;font-variant:normal;font-weight:normal;font-stretch:normal;text-align:start;line-height:125%;writing-mode:lr;text-anchor:start;fill:#000000;fill-opacity:1;stroke:none;stroke-width:3;stroke-linecap:butt;stroke-linejoin:miter;stroke-miterlimit:4;stroke-dasharray:none;stroke-opacity:1;font-family:Bitstream Vera Sans;-inkscape-font-specification:Bitstream Vera Sans Oblique"
       x="367.45316"
       y="117.14876"
       id="text5513"
       name="publicTwt9"
       order="28"
       sodipodi:linespacing="125%"><tspan
         sodipodi:role="line"
         id="tspan5515"
         x="367.45316"
         y="117.14876">text</tspan></text>
    <path
       style="fill:#00ffff;fill-rule:evenodd;stroke:#000000;stroke-width:3;stroke-linecap:butt;stroke-linejoin:miter;stroke-miterlimit:4;stroke-dasharray:none;stroke-opacity:1;opacity:0.92244898"
       d="M 333.45721,360.65767 C 332.99425,359.09359 336.04065,353.4841 338.13949,349.28643 C 339.93725,345.6909 343.28671,342.36499 346.83514,340.59078 C 350.55387,338.73141 353.74854,337.42408 357.53748,335.90851 C 361.82868,334.19203 366.40238,334.36118 370.91541,333.23293 C 374.24794,332.3998 377.7127,332.03528 380.94885,331.22624 C 384.07598,330.44446 387.72363,330.55734 390.9823,330.55734 C 394.54974,330.55734 398.11719,330.55734 401.68464,330.55734 C 405.65233,330.55734 407.24998,333.01216 411.71808,331.89514 C 417.63163,330.41675 421.9106,325.63102 426.4338,321.86169 C 430.07988,318.82329 432.75652,317.60543 437.13614,316.51051 C 441.17221,315.50148 445.38775,315.45094 449.17628,314.50381 C 453.02441,313.54178 456.95501,315.17271 460.54751,315.17271 C 463.7662,315.17271 467.9513,317.20238 470.58096,318.51721 C 474.46126,320.45736 477.56845,322.97726 481.2833,325.20617 C 485.17239,327.53963 488.98001,328.72008 492.65454,330.55734 C 496.64235,332.55125 499.35788,335.254 502.68798,338.58409 C 505.91707,341.81318 509.27728,345.36552 512.72143,347.94864 C 516.65284,350.8972 520.20424,352.02449 524.09266,353.9687 C 526.57643,355.21059 534.36911,352.44853 536.80169,351.96202 C 541.15278,351.0918 547.57446,351.64517 551.51741,352.63091 C 557.89615,354.2256 564.14697,356.60455 569.57761,359.31987 C 574.61447,361.8383 574.85381,367.86557 576.93547,372.0289 C 581.88099,381.91994 580.12916,396.693 582.28664,407.48041 C 582.64723,409.28333 583.17851,411.04786 583.62444,412.83159 C 584.851,417.73784 584.96223,422.5018 584.96223,427.54731 C 584.96223,432.12554 584.44993,434.28605 580.94885,436.91186 C 575.5198,440.98365 569.81083,443.20807 562.88865,444.93861 C 558.3783,446.0662 553.46982,447.64134 549.51072,449.62089 C 543.24275,452.75488 537.39163,455.67254 530.78163,458.31654 C 523.65594,461.16682 515.72349,464.47677 510.04584,469.01888 C 506.58979,471.78372 501.43391,474.21953 497.33681,475.03895 C 490.51625,476.40306 484.14665,476.66425 477.26992,478.38343 C 470.69773,480.02648 461.84533,479.72122 455.19634,479.72122 C 445.99753,479.72122 435.27812,481.29684 426.4338,483.0657 C 421.39931,484.0726 415.55697,483.7346 410.38029,483.7346 C 406.51354,483.7346 402.46333,483.92927 399.00905,483.0657 C 395.68036,482.23353 392.13967,482.51893 388.97561,481.72791 C 385.24093,480.79424 381.20926,479.95355 377.60437,479.05233 C 372.27211,477.71926 366.9162,474.62975 362.21975,471.69447 C 358.03202,469.07713 354.41241,467.23161 350.84852,463.66771 C 347.50159,460.32078 344.24258,457.06177 340.81507,453.63427 C 337.63214,450.45134 335.26563,446.74703 332.11942,443.60082 C 329.34604,440.82744 327.18623,436.80028 324.76156,433.56738 C 321.65797,429.42926 320.30851,423.99238 318.07259,419.52055 C 316.12671,415.6288 316.44595,411.00728 315.39701,406.81151 C 314.56174,403.47043 314.72811,399.6174 314.72811,396.10917 C 314.72811,391.75568 314.94649,388.31456 316.7348,384.73793 C 318.57767,381.0522 321.70164,377.89251 324.09266,374.70449 C 326.52775,371.4577 327.08719,367.81324 329.44383,364.67105 C 331.99757,361.26607 326.9922,364.53667 333.45721,360.65767 z"
       id="path5517"
       name="publicCloud11"
       order="29" />
    <text
       xml:space="preserve"
       style="font-size:16px;font-style:oblique;font-variant:normal;font-weight:normal;font-stretch:normal;text-align:start;line-height:125%;writing-mode:lr;text-anchor:start;fill:#000000;fill-opacity:1;stroke:none;stroke-width:3;stroke-linecap:butt;stroke-linejoin:miter;stroke-miterlimit:4;stroke-dasharray:none;stroke-opacity:1;font-family:Bitstream Vera Sans;-inkscape-font-specification:Bitstream Vera Sans Oblique"
       x="340.73862"
       y="369.64426"
       id="text5519"
       name="publicTwt11"
       order="30"
       sodipodi:linespacing="125%"><tspan
         sodipodi:role="line"
         id="tspan5521"
         x="340.73862"
         y="369.64426">text</tspan></text>
    <g
       id="g4789"
       transform="translate(772.2334,18.289046)"
       name="friendsButton"
       order="1000">
      <rect
         ry="9"
         rx="9"
         y="54.219028"
         x="-8.6894073"
         height="157.278"
         width="35"
         id="rect4777"
         style="fill:#000000;fill-opacity:1;stroke:#ffffff;stroke-width:4;stroke-miterlimit:4;stroke-dasharray:none;stroke-opacity:1" />
      <text
         transform="matrix(0,-1,1,0,0,0)"
         id="text4783"
         y="17.113012"
         x="-168.91795"
         style="font-size:18px;font-style:normal;font-variant:normal;font-weight:bold;font-stretch:normal;fill:#ffffff;fill-opacity:1;stroke:none;stroke-width:1px;stroke-linecap:butt;stroke-linejoin:miter;stroke-opacity:1;font-family:Sans;-inkscape-font-specification:Sans Bold"
         xml:space="preserve"><tspan
           y="17.113012"
           x="-168.91795"
           id="tspan4785"
           sodipodi:role="line">friends</tspan></text>
    </g>
    <g
       id="g4794"
       transform="translate(761.16697,24.393175)"
       name="publicButton"
       order="1000">
      <rect
         ry="9"
         rx="9"
         y="238.04308"
         x="1.2387793"
         height="157.278"
         width="35"
         id="rect4787"
         style="fill:#000000;fill-opacity:1;stroke:#ffffff;stroke-width:4;stroke-miterlimit:4;stroke-dasharray:none;stroke-opacity:1" />
      <text
         transform="matrix(0,-1,1,0,0,0)"
         id="text4779"
         y="25.693451"
         x="-350.82111"
         style="font-size:18px;font-style:normal;font-variant:normal;font-weight:bold;font-stretch:normal;fill:#ffffff;fill-opacity:1;stroke:none;stroke-width:1px;stroke-linecap:butt;stroke-linejoin:miter;stroke-opacity:1;font-family:Sans;-inkscape-font-specification:Sans Bold"
         xml:space="preserve"><tspan
           y="25.693451"
           x="-350.82111"
           id="tspan4781"
           sodipodi:role="line">public</tspan></text>
    </g>
    <rect
       style="opacity:0.84081633;fill:#000000;fill-opacity:1;stroke:none;stroke-width:3;stroke-miterlimit:4;stroke-dasharray:none;stroke-opacity:1"
       id="rect5543"
       width="653.21362"
       height="74.111313"
       x="19.820465"
       y="16.373426"
       rx="15"
       ry="15"
       name="friendCloud0"
       order="112" />
    <rect
       style="opacity:0.84081633;fill:#000000;fill-opacity:1;stroke:none;stroke-width:3;stroke-miterlimit:4;stroke-dasharray:none;stroke-opacity:1"
       id="rect5545"
       width="653.21362"
       height="74.111313"
       x="87.899475"
       y="77.55835"
       rx="15"
       ry="15"
       name="friendCloud1"
       order="110" />
    <rect
       style="opacity:0.84081633;fill:#000000;fill-opacity:1;stroke:none;stroke-width:3;stroke-miterlimit:4;stroke-dasharray:none;stroke-opacity:1"
       id="rect5547"
       width="653.21362"
       height="74.111313"
       x="8.61761"
       y="142.19031"
       rx="15"
       ry="15"
       name="friendCloud2"
       order="108" />
    <rect
       style="opacity:0.84081633;fill:#000000;fill-opacity:1;stroke:none;stroke-width:3;stroke-miterlimit:4;stroke-dasharray:none;stroke-opacity:1"
       id="rect5549"
       width="653.21362"
       height="74.111313"
       x="52.567333"
       y="203.37523"
       rx="15"
       ry="15"
       name="friendCloud3"
       order="106" />
    <rect
       style="opacity:0.84081633;fill:#000000;fill-opacity:1;stroke:none;stroke-width:3;stroke-miterlimit:4;stroke-dasharray:none;stroke-opacity:1"
       id="rect5551"
       width="653.21362"
       height="74.111313"
       x="93.07003"
       y="267.14542"
       rx="15"
       ry="15"
       name="friendCloud4"
       order="104" />
    <rect
       style="opacity:0.84081633;fill:#000000;fill-opacity:1;stroke:none;stroke-width:3;stroke-miterlimit:4;stroke-dasharray:none;stroke-opacity:1"
       id="rect5553"
       width="653.21362"
       height="74.111313"
       x="69.802528"
       y="332.63916"
       rx="15"
       ry="15"
       name="friendCloud5"
       order="102" />
    <rect
       style="opacity:0.84081633;fill:#000000;fill-opacity:1;stroke:none;stroke-width:3;stroke-miterlimit:4;stroke-dasharray:none;stroke-opacity:1"
       id="rect5555"
       width="653.21362"
       height="74.111313"
       x="25.852793"
       y="393.82407"
       rx="15"
       ry="15"
       name="friendCloud6"
       order="100" />
    <text
       xml:space="preserve"
       style="font-size:20px;font-style:normal;font-variant:normal;font-weight:300;font-stretch:normal;fill:#ffffff;fill-opacity:1;stroke:none;stroke-width:1px;stroke-linecap:butt;stroke-linejoin:miter;stroke-opacity:1;font-family:Purisa;-inkscape-font-specification:Purisa Light;text-anchor:start;text-align:start;writing-mode:lr;line-height:125%"
       x="37.05566"
       y="45.673252"
       id="text5557"
       name="friendTwt0"
       order="113"
       sodipodi:linespacing="125%"><tspan
         sodipodi:role="line"
         id="tspan5559"
         x="37.05566"
         y="45.673252">text</tspan></text>
    <text
       xml:space="preserve"
       style="font-size:20px;font-style:normal;font-variant:normal;font-weight:300;font-stretch:normal;fill:#ffffff;fill-opacity:1;stroke:none;stroke-width:1px;stroke-linecap:butt;stroke-linejoin:miter;stroke-opacity:1;font-family:Purisa;-inkscape-font-specification:Purisa Light;text-anchor:start;text-align:start;writing-mode:lr;line-height:125%"
       x="101.12933"
       y="102.70895"
       id="text5561"
       name="friendTwt1"
       order="111"
       sodipodi:linespacing="125%"><tspan
         sodipodi:role="line"
         id="tspan5563"
         x="101.12933"
         y="102.70895">text</tspan></text>
    <text
       xml:space="preserve"
       style="font-size:20px;font-style:normal;font-variant:normal;font-weight:300;font-stretch:normal;fill:#ffffff;fill-opacity:1;stroke:none;stroke-width:1px;stroke-linecap:butt;stroke-linejoin:miter;stroke-opacity:1;font-family:Purisa;-inkscape-font-specification:Purisa Light;text-anchor:start;text-align:start;writing-mode:lr;line-height:125%"
       x="24.432755"
       y="166.47914"
       id="text5565"
       name="friendTwt2"
       order="109"
       sodipodi:linespacing="125%"><tspan
         sodipodi:role="line"
         id="tspan5567"
         x="24.432755"
         y="166.47914">text</tspan></text>
    <text
       xml:space="preserve"
       style="font-size:20px;font-style:normal;font-variant:normal;font-weight:300;font-stretch:normal;fill:#ffffff;fill-opacity:1;stroke:none;stroke-width:1px;stroke-linecap:butt;stroke-linejoin:miter;stroke-opacity:1;font-family:Purisa;-inkscape-font-specification:Purisa Light;text-anchor:start;text-align:start;writing-mode:lr;line-height:125%"
       x="66.658966"
       y="228.52582"
       id="text5569"
       name="friendTwt3"
       order="107"
       sodipodi:linespacing="125%"><tspan
         sodipodi:role="line"
         id="tspan5571"
         x="66.658966"
         y="228.52582">text</tspan></text>
    <text
       xml:space="preserve"
       style="font-size:20px;font-style:normal;font-variant:normal;font-weight:300;font-stretch:normal;fill:#ffffff;fill-opacity:1;stroke:none;stroke-width:1px;stroke-linecap:butt;stroke-linejoin:miter;stroke-opacity:1;font-family:Purisa;-inkscape-font-specification:Purisa Light;text-anchor:start;text-align:start;writing-mode:lr;line-height:125%"
       x="108.02341"
       y="292.29602"
       id="text5573"
       name="friendTwt4"
       order="105"
       sodipodi:linespacing="125%"><tspan
         sodipodi:role="line"
         id="tspan5575"
         x="108.02341"
         y="292.29602">text</tspan></text>
    <text
       xml:space="preserve"
       style="font-size:20px;font-style:normal;font-variant:normal;font-weight:300;font-stretch:normal;fill:#ffffff;fill-opacity:1;stroke:none;stroke-width:1px;stroke-linecap:butt;stroke-linejoin:miter;stroke-opacity:1;font-family:Purisa;-inkscape-font-specification:Purisa Light;text-anchor:start;text-align:start;writing-mode:lr;line-height:125%"
       x="84.75592"
       y="356.92798"
       id="text5577"
       name="friendTwt5"
       order="103"
       sodipodi:linespacing="125%"><tspan
         sodipodi:role="line"
         id="tspan5579"
         x="84.75592"
         y="356.92798">text</tspan></text>
    <text
       xml:space="preserve"
       style="font-size:20px;font-style:normal;font-variant:normal;font-weight:300;font-stretch:normal;fill:#ffffff;fill-opacity:1;stroke:none;stroke-width:1px;stroke-linecap:butt;stroke-linejoin:miter;stroke-opacity:1;font-family:Purisa;-inkscape-font-specification:Purisa Light;text-anchor:start;text-align:start;writing-mode:lr;line-height:125%"
       x="39.082664"
       y="418.97464"
       id="text5581"
       name="friendTwt6"
       order="101"
       sodipodi:linespacing="125%"><tspan
         sodipodi:role="line"
         id="tspan5583"
         x="39.082664"
         y="418.97464">text</tspan></text>
    <rect
       style="opacity:0.8408163;fill:#f2f2f2;fill-opacity:1;stroke:none;stroke-width:3;stroke-miterlimit:4;stroke-dasharray:none;stroke-opacity:1"
       id="rect5619"
       width="94.043297"
       height="93.88987"
       x="587.18604"
       y="6.0323162"
       rx="14.106494"
       ry="14.083482"
       name="friendImg0"
       order="150" />
    <rect
       style="opacity:0.8408163;fill:#f2f2f2;fill-opacity:1;stroke:none;stroke-width:3;stroke-miterlimit:4;stroke-dasharray:none;stroke-opacity:1"
       id="rect5623"
       width="94.043297"
       height="93.88987"
       x="655.09314"
       y="66.261131"
       rx="14.106494"
       ry="14.083482"
       name="friendImg1"
       order="150" />
    <rect
       style="opacity:0.8408163;fill:#f2f2f2;fill-opacity:1;stroke:none;stroke-width:3;stroke-miterlimit:4;stroke-dasharray:none;stroke-opacity:1"
       id="rect5625"
       width="94.043297"
       height="93.88987"
       x="578.2226"
       y="131.63695"
       rx="14.106494"
       ry="14.083482"
       name="friendImg2"
       order="150" />
    <rect
       style="opacity:0.8408163;fill:#f2f2f2;fill-opacity:1;stroke:none;stroke-width:3;stroke-miterlimit:4;stroke-dasharray:none;stroke-opacity:1"
       id="rect5627"
       width="94.043297"
       height="93.88987"
       x="618.30347"
       y="194.70856"
       rx="14.106494"
       ry="14.083482"
       name="friendImg3"
       order="150" />
    <rect
       style="opacity:0.8408163;fill:#f2f2f2;fill-opacity:1;stroke:none;stroke-width:3;stroke-miterlimit:4;stroke-dasharray:none;stroke-opacity:1"
       id="rect5629"
       width="94.043297"
       height="93.88987"
       x="660.87598"
       y="257.32047"
       rx="14.106494"
       ry="14.083482"
       name="friendImg4"
       order="150" />
    <rect
       style="opacity:0.8408163;fill:#f2f2f2;fill-opacity:1;stroke:none;stroke-width:3;stroke-miterlimit:4;stroke-dasharray:none;stroke-opacity:1"
       id="rect5631"
       width="94.043297"
       height="93.88987"
       x="638.01813"
       y="320.94412"
       rx="14.106494"
       ry="14.083482"
       name="friendImg5"
       order="150" />
    <rect
       style="opacity:0.8408163;fill:#f2f2f2;fill-opacity:1;stroke:none;stroke-width:3;stroke-miterlimit:4;stroke-dasharray:none;stroke-opacity:1"
       id="rect5633"
       width="94.043297"
       height="93.88987"
       x="592.49908"
       y="381.81931"
       rx="14.106494"
       ry="14.083482"
       name="friendImg6"
       order="150" />
    <rect
       style="opacity:1;fill:none;fill-opacity:1;stroke:#ffffff;stroke-width:4;stroke-miterlimit:4;stroke-dasharray:none;stroke-opacity:1"
       id="rect2475"
       width="658.38422"
       height="81.005386"
       x="16.958717"
       y="12.649905"
       rx="15"
       ry="15"
       name="friendFrame0"
       order="150" />
    <rect
       style="opacity:1;fill:none;fill-opacity:1;stroke:#ffffff;stroke-width:4;stroke-miterlimit:4;stroke-dasharray:none;stroke-opacity:1"
       id="rect3247"
       width="658.38422"
       height="81.005386"
       x="84.211838"
       y="73.899467"
       rx="15"
       ry="15"
       name="friendFrame1"
       order="150" />
    <rect
       style="opacity:1;fill:none;fill-opacity:1;stroke:#ffffff;stroke-width:4;stroke-miterlimit:4;stroke-dasharray:none;stroke-opacity:1"
       id="rect3249"
       width="658.38422"
       height="81.005386"
       x="7.7629995"
       y="138.26572"
       rx="15"
       ry="15"
       name="friendFrame2"
       order="150" />
    <rect
       style="opacity:1;fill:none;fill-opacity:1;stroke:#ffffff;stroke-width:4;stroke-miterlimit:4;stroke-dasharray:none;stroke-opacity:1"
       id="rect3251"
       width="658.38422"
       height="81.005386"
       x="48.861752"
       y="199.96049"
       rx="15"
       ry="15"
       name="friendFrame3"
       order="150" />
    <rect
       style="opacity:1;fill:none;fill-opacity:1;stroke:#ffffff;stroke-width:4;stroke-miterlimit:4;stroke-dasharray:none;stroke-opacity:1"
       id="rect3253"
       width="658.38422"
       height="81.005386"
       x="89.447029"
       y="263.17773"
       rx="15"
       ry="15"
       name="friendFrame4"
       order="150" />
    <rect
       style="opacity:1;fill:none;fill-opacity:1;stroke:#ffffff;stroke-width:4;stroke-miterlimit:4;stroke-dasharray:none;stroke-opacity:1"
       id="rect3255"
       width="658.38422"
       height="81.005386"
       x="67.899452"
       y="330.08618"
       rx="15"
       ry="15"
       name="friendFrame5"
       order="150" />
    <rect
       style="opacity:1;fill:none;fill-opacity:1;stroke:#ffffff;stroke-width:4;stroke-miterlimit:4;stroke-dasharray:none;stroke-opacity:1"
       id="rect3257"
       width="658.38422"
       height="81.005386"
       x="22.276474"
       y="389.85638"
       rx="15"
       ry="15"
       name="friendFrame6"
       order="150" />
    <g
       id="g2482"
       transform="translate(769.41918,19.05221)"
       name="friendsFocusButton"
       order="1000">
      <rect
         ry="9"
         rx="9"
         y="54.219028"
         x="-6.6894073"
         height="157.278"
         width="35"
         id="rect2484"
         style="fill:#00ffff;fill-opacity:1;stroke:#000000;stroke-width:4;stroke-miterlimit:4;stroke-dasharray:none;stroke-opacity:1" />
      <text
         transform="matrix(0,-1,1,0,0,0)"
         id="text2486"
         y="17.113012"
         x="-168.91795"
         style="font-size:18px;font-style:normal;font-variant:normal;font-weight:bold;font-stretch:normal;fill:#000000;fill-opacity:1;stroke:none;stroke-width:1px;stroke-linecap:butt;stroke-linejoin:miter;stroke-opacity:1;font-family:Sans;-inkscape-font-specification:Sans Bold"
         xml:space="preserve"><tspan
           y="17.113012"
           x="-168.91795"
           id="tspan2488"
           sodipodi:role="line">friends</tspan></text>
    </g>
    <g
       id="g2490"
       transform="translate(761.2971,24.606977)"
       name="publicFocusButton"
       order="1000">
      <rect
         ry="9"
         rx="9"
         y="238.04308"
         x="1.2387793"
         height="157.278"
         width="35"
         id="rect2492"
         style="fill:#00ffff;fill-opacity:1;stroke:#000000;stroke-width:4;stroke-miterlimit:4;stroke-dasharray:none;stroke-opacity:1" />
      <text
         transform="matrix(0,-1,1,0,0,0)"
         id="text2494"
         y="25.693451"
         x="-350.82111"
         style="font-size:18px;font-style:normal;font-variant:normal;font-weight:bold;font-stretch:normal;fill:#000000;fill-opacity:1;stroke:none;stroke-width:1px;stroke-linecap:butt;stroke-linejoin:miter;stroke-opacity:1;font-family:Sans;-inkscape-font-specification:Sans Bold"
         xml:space="preserve"><tspan
           y="25.693451"
           x="-350.82111"
           id="tspan2496"
           sodipodi:role="line">public</tspan></text>
    </g>
  </g>
</svg>
